<?xml version="1.0" encoding="utf-8"?>
<!-- Generator: Adobe Illustrator 19.1.0, SVG Export Plug-In . SVG Version: 6.00 Build 0)  -->
<svg version="1.1" id="Layer_1" xmlns="http://www.w3.org/2000/svg" xmlns:xlink="http://www.w3.org/1999/xlink" x="0px" y="0px"
	 viewBox="0 0 118.2 8.1" style="enable-background:new 0 0 118.2 8.1;" xml:space="preserve">
<style type="text/css">
	.st0{fill:#B6B5B5;}
</style>
<g>
	<path class="st0" d="M95.2,3c3.9,0.2,7.7,0.4,11.5,0.5c3.8,0.1,7.7,0.4,11.5,0.8c-3.9,0.2-7.7,0.4-11.5,0.6
		C102.9,5,99,5.1,95.2,5.1c-1.9,0.2-3.8,0.4-5.8,0.4c-1.9,0-3.8,0.1-5.8,0.1h-9.4c-0.2,0-0.4,0.1-0.6,0.2c-0.1,0.1-0.2,0.1-0.3,0.2
		c-0.9,0.6-1.7,1.2-2.6,1.5c-0.9,0.4-1.7,0.6-2.6,0.6c-0.8,0-1.7-0.3-2.5-0.8c-0.8-0.5-1.5-1.5-2.2-3C63,4.5,62.4,4.7,62,5.1
		c-0.5,0.4-0.9,0.7-1.3,0.9c-0.9,0.6-1.7,1.2-2.6,1.5c-0.9,0.4-1.7,0.6-2.6,0.6c-0.9,0-1.7-0.3-2.5-0.8c-0.8-0.5-1.5-1.5-2.2-3
		c-0.6,0.2-1.2,0.5-1.7,0.9S48.2,5.8,47.8,6c-0.9,0.6-1.7,1.2-2.6,1.5c-0.9,0.4-1.7,0.6-2.6,0.6c-1.2,0-2.5-0.8-3.8-2.5h-4.3
		c-1.9,0-3.8,0-5.8-0.1S25,5.3,23.1,5.1c-3.9,0-7.7-0.1-11.5-0.3C7.7,4.6,3.9,4.5,0,4.3c3.9-0.4,7.7-0.7,11.5-0.8
		c3.8-0.1,7.7-0.3,11.5-0.5h11.5l11.5-0.4c0.2,0,0.5-0.1,0.7-0.3c0.2-0.2,0.6-0.4,1-0.6c0.9-0.4,1.6-0.8,2.4-1.1S51.7,0,52.5,0
		c0.9,0,1.7,0.3,2.6,0.8c0.9,0.5,1.7,1.5,2.5,3C58,3.4,58.5,3,59,2.7c0.5-0.3,1-0.7,1.7-1.1c0.8-0.4,1.6-0.8,2.3-1.1
		C63.7,0.2,64.4,0,65.3,0c0.9,0,1.7,0.3,2.6,0.8c0.8,0.5,1.7,1.5,2.6,3c0.4-0.4,0.9-0.8,1.4-1.1c0.5-0.3,1-0.7,1.6-1.1
		c0.9-0.4,1.6-0.8,2.4-1.1C76.5,0.2,77.2,0,78.1,0c0.9,0,1.6,0.2,2.3,0.7c0.7,0.5,1.3,1.2,2,2.3h1.3H95.2z M50.8,4.3
		C51.8,4.7,52.7,5,53.5,5c0.6,0,1.3-0.1,2-0.3c0.2,0,0.5-0.1,0.9-0.3C56.7,4.2,57,4,57.2,3.8c-0.7-0.7-1.5-1-2.4-1
		c-0.7,0-1.5,0.2-2.3,0.6c-0.2,0-0.5,0.1-0.8,0.3C51.3,3.8,51,4,50.8,4.3z M63.6,4.3c1,0.5,1.9,0.7,2.7,0.7c0.6,0,1.2-0.1,2-0.3
		c0.2,0,0.5-0.1,0.9-0.3C69.5,4.2,69.8,4,70,3.8c-0.7-0.7-1.5-1-2.4-1c-0.7,0-1.5,0.2-2.3,0.6c-0.2,0-0.5,0.1-0.9,0.3
		C64.1,3.8,63.8,4,63.6,4.3z"/>
</g>
</svg>
