<?xml version="1.0" encoding="utf-8"?>
<!-- Generator: Adobe Illustrator 19.1.0, SVG Export Plug-In . SVG Version: 6.00 Build 0)  -->
<svg version="1.1" id="Layer_1" xmlns="http://www.w3.org/2000/svg" xmlns:xlink="http://www.w3.org/1999/xlink" x="0px" y="0px"
	 viewBox="0 0 377 226.4" style="enable-background:new 0 0 377 226.4;" xml:space="preserve">
<style type="text/css">
	.st0{fill:#F1F2F2;}
	.st1{fill:none;}
	.st2{fill:#FFFFFF;}
</style>
<path d="M188,0l12.3,0c1,0,1.9,0.5,2.4,1.4c3,5.2,12,24.1,11.2,35.4c-0.8,10.7-14.3,14.4-20.2,15.4c-1.3,0.2-2.7,1.3-3,2.6
	c0,0-1.6,2.9-1.6,13.2c0,9.5,0.4,14.7,0.4,14.7c0,1.6,2.2,2.4,3.6,2.6c4.3,0.6,12.8,2,12.8,4.1c0,4.2-19.8,4.2-19.8,4.2
	S170,93.3,170,89.6c0-2.1,8.6-3.5,12.8-4.1c1.3-0.2,3.6-1.2,3.6-2.5c0,0,0.3-4.3,0.3-14.8c0-12-1.3-13.3-1.3-13.3
	c-0.5-1.2-1.7-2.4-3.1-2.6c-5.9-1-19.1-4.7-19.9-15.4c-0.8-11.3,7.8-30.2,10.8-35.4c0.5-0.9,1.4-1.4,2.4-1.4L188,0z"/>
<g>
	<path class="st0" d="M197.4,8.8c-1-0.8-4.4,0.3-6.2,1.1c-0.2-2.2-1.7-5.5-3.2-5.5c-1.3,0-2.9,3.3-3.2,5.5c-1.7-0.8-4.8-2.1-5.7-1.2
		c-1.1,1.1,2.2,5.9,5.3,7.6c0.1-0.1,0.2-0.2,0.2-0.4c1.4-1.8,4-2.2,5.8-0.9c0.5,0.3,0.8,0.8,1.1,1.2C194.7,14.6,198.6,9.7,197.4,8.8
		z"/>
	<circle class="st0" cx="178" cy="21.9" r="4.2"/>
	<circle class="st0" cx="188.1" cy="21.7" r="4.2"/>
	<circle class="st0" cx="198" cy="21.5" r="4.2"/>
	<circle class="st0" cx="183.4" cy="31.1" r="4.2"/>
	<circle class="st0" cx="193.3" cy="30.9" r="4.2"/>
	<circle class="st0" cx="188.6" cy="40.4" r="4.2"/>
</g>
<g>
	<rect x="64.1" y="182.9" class="st1" width="249.7" height="21.4"/>
	<path d="M104.1,186.3c0,0.1-0.1,0.2-0.3,0.2c-0.1,0-0.2,0-0.2-0.1c-0.2-0.7-0.6-1.2-1.1-1.6c-0.5-0.4-1.1-0.5-1.9-0.5H99
		c-0.7,0-1.1,0.4-1.1,1.1v4h2.1c0.6,0,1-0.1,1.2-0.4c0.2-0.3,0.4-0.8,0.5-1.5c0-0.1,0.1-0.1,0.2-0.1c0.2,0,0.3,0,0.3,0.1
		c0,0.3,0,0.7-0.1,1.1c0,0.4-0.1,0.8-0.1,1.1c0,0.3,0,0.6,0.1,1.1c0,0.5,0.1,0.9,0.1,1.2c0,0.1-0.1,0.1-0.3,0.1
		c-0.2,0-0.2,0-0.2-0.1c-0.1-0.7-0.3-1.2-0.5-1.5s-0.6-0.4-1.2-0.4h-2.1v4.2c0,0.4,0.1,0.7,0.2,0.9c0.1,0.2,0.3,0.3,0.6,0.4
		c0.3,0.1,0.6,0.2,1.1,0.2c0.1,0,0.2,0.1,0.2,0.2c0,0.2,0,0.3-0.1,0.3c-0.4,0-0.9,0-1.4-0.1c-0.5,0-1-0.1-1.4-0.1
		c-0.4,0-0.8,0-1.3,0.1c-0.6,0-1,0.1-1.4,0.1c-0.1,0-0.1-0.1-0.1-0.3c0-0.1,0-0.2,0.1-0.2c0.5-0.1,0.9-0.1,1.1-0.2
		c0.3-0.1,0.4-0.2,0.6-0.4c0.1-0.2,0.2-0.5,0.2-0.9v-8.5c0-0.4,0-0.7-0.1-0.9c-0.1-0.2-0.3-0.3-0.5-0.4c-0.3-0.1-0.7-0.2-1.2-0.2
		c-0.1,0-0.1-0.1-0.1-0.2s0-0.2,0.1-0.2c1.5,0.1,3.1,0.1,4.6,0.1c1.5,0,3,0,4.5-0.1C103.6,184.6,103.8,185.5,104.1,186.3z"/>
	<path d="M125.7,189.9c0,1.9-0.6,3.5-1.8,4.7s-2.8,1.8-4.8,1.8c-2,0-3.6-0.6-4.8-1.8c-1.2-1.2-1.8-2.8-1.8-4.7
		c0-1.9,0.6-3.5,1.8-4.7s2.8-1.9,4.8-1.9c2,0,3.6,0.6,4.8,1.9S125.7,188,125.7,189.9z M123.7,189.9c0-1.8-0.4-3.2-1.3-4.3
		s-2-1.7-3.4-1.7c-1.4,0-2.5,0.6-3.4,1.7s-1.3,2.6-1.3,4.3c0,1.8,0.4,3.2,1.3,4.3c0.8,1.1,2,1.6,3.4,1.6c1.4,0,2.5-0.5,3.4-1.6
		S123.7,191.7,123.7,189.9z"/>
	<path d="M146.7,195.8c0,0.2,0,0.3-0.1,0.3c-0.2,0-0.6,0-1.1-0.1c-0.4,0-0.6,0-0.7,0c-0.2,0-0.4,0-0.8,0.1s-0.6,0.1-0.8,0.1
		l-2.7-4.4c-0.4-0.6-0.7-1-0.9-1.2c-0.2-0.2-0.7-0.3-1.4-0.3v3.9c0,0.4,0.1,0.7,0.2,0.9c0.1,0.2,0.3,0.3,0.6,0.4
		c0.3,0.1,0.6,0.2,1.1,0.2c0.1,0,0.2,0.1,0.2,0.2c0,0.2,0,0.3-0.1,0.3c-0.4,0-0.9,0-1.4-0.1c-0.5,0-1-0.1-1.4-0.1
		c-0.4,0-0.8,0-1.3,0.1c-0.6,0-1,0.1-1.4,0.1c-0.1,0-0.1-0.1-0.1-0.3c0-0.1,0-0.2,0.1-0.2c0.5-0.1,0.9-0.1,1.1-0.2
		c0.3-0.1,0.4-0.2,0.6-0.4c0.1-0.2,0.2-0.5,0.2-0.9v-8.5c0-0.4,0-0.7-0.1-0.9c-0.1-0.2-0.3-0.3-0.5-0.4c-0.3-0.1-0.7-0.2-1.2-0.2
		c-0.1,0-0.1-0.1-0.1-0.2s0-0.2,0.1-0.2c0.4,0,0.9,0,1.4,0.1c0.5,0,1,0.1,1.3,0.1c0.4,0,0.8,0,1.4-0.1c0.6,0,1-0.1,1.4-0.1
		c1.3,0,2.4,0.3,3.1,0.8s1.1,1.3,1.1,2.4c0,0.6-0.2,1.2-0.7,1.8c-0.5,0.5-1.1,1-2,1.3l2.8,4.5c0.2,0.4,0.6,0.7,0.9,0.9
		c0.4,0.2,0.9,0.3,1.5,0.4C146.7,195.6,146.7,195.7,146.7,195.8z M142.1,186.8c0-1.8-0.8-2.6-2.3-2.6c-0.5,0-0.9,0-1.1,0.1
		c-0.3,0.1-0.4,0.2-0.5,0.4s-0.1,0.5-0.1,0.9v4c0.3,0,0.8,0.1,1.3,0.1c1,0,1.7-0.2,2.1-0.7C141.9,188.6,142.1,187.8,142.1,186.8z"/>
	<path d="M177.2,195.8c0,0.2,0,0.3-0.1,0.3c-0.4,0-0.9,0-1.4-0.1c-0.5,0-0.8-0.1-1.2-0.1c-0.4,0-0.8,0-1.4,0.1
		c-0.6,0-1.1,0.1-1.5,0.1c-0.1,0-0.1-0.1-0.1-0.2s0-0.2,0.1-0.2c0.5,0,0.9-0.1,1.2-0.2c0.2-0.1,0.4-0.3,0.4-0.5
		c0-0.2-0.1-0.4-0.2-0.8l-1-3h-3.7l-1,2.8c-0.1,0.4-0.2,0.7-0.2,0.9c0,0.5,0.5,0.8,1.5,0.9c0.1,0,0.1,0.1,0.1,0.2s0,0.2-0.1,0.2
		c-0.4,0-0.8,0-1.2-0.1c-0.4,0-0.8-0.1-1.1-0.1c-0.3,0-0.6,0-1,0.1c-0.4,0-0.8,0.1-1,0.1c-0.1,0-0.1-0.1-0.1-0.2
		c0-0.2,0.1-0.3,0.2-0.3c0.5,0,0.9-0.2,1.2-0.4c0.3-0.2,0.6-0.7,0.9-1.4l4.2-10.3c0-0.1,0.1-0.1,0.3-0.1c0.1,0,0.2,0,0.3,0.1
		l3.7,10.3c0.2,0.6,0.5,1,0.9,1.3s0.8,0.5,1.4,0.5C177.1,195.6,177.2,195.7,177.2,195.8z M171.7,190.5l-1.6-4.6l-1.7,4.6H171.7z"/>
	<path d="M208,192.8c-0.2,1-0.4,2-0.6,3.1c-0.3,0-1,0.1-1.9,0.2c-1.2,0.2-2,0.3-2.6,0.3c-1.4,0-2.6-0.3-3.6-0.8
		c-1-0.5-1.8-1.3-2.4-2.3s-0.9-2.1-0.9-3.4c0-1.2,0.3-2.3,0.9-3.4c0.6-1,1.4-1.8,2.5-2.4c1.1-0.6,2.3-0.9,3.6-0.9
		c0.6,0,1.3,0.1,2.3,0.2c0.7,0.1,1.3,0.1,1.6,0.1c0.1,0.8,0.2,1.9,0.4,3.1c0,0.1-0.1,0.1-0.3,0.1c-0.1,0-0.2,0-0.2-0.1
		c-0.2-0.8-0.7-1.5-1.4-2c-0.7-0.5-1.5-0.8-2.5-0.8c-1.4,0-2.6,0.6-3.5,1.7s-1.4,2.6-1.4,4.3c0,1.6,0.5,3,1.4,4.2
		c0.9,1.1,2.1,1.7,3.5,1.7c2.1,0,3.7-1,4.6-3c0-0.1,0.1-0.1,0.2-0.1C207.9,192.6,208,192.7,208,192.8z"/>
	<path d="M228.8,195.8c0,0.2,0,0.3-0.1,0.3c-0.4,0-0.9,0-1.4-0.1c-0.5,0-0.8-0.1-1.2-0.1c-0.4,0-0.8,0-1.4,0.1
		c-0.6,0-1.1,0.1-1.5,0.1c-0.1,0-0.1-0.1-0.1-0.2s0-0.2,0.1-0.2c0.5,0,0.9-0.1,1.2-0.2c0.2-0.1,0.4-0.3,0.4-0.5
		c0-0.2-0.1-0.4-0.2-0.8l-1-3h-3.7l-1,2.8c-0.1,0.4-0.2,0.7-0.2,0.9c0,0.5,0.5,0.8,1.5,0.9c0.1,0,0.1,0.1,0.1,0.2s0,0.2-0.1,0.2
		c-0.4,0-0.8,0-1.2-0.1c-0.4,0-0.8-0.1-1.1-0.1c-0.3,0-0.6,0-1,0.1c-0.4,0-0.8,0.1-1,0.1c-0.1,0-0.1-0.1-0.1-0.2
		c0-0.2,0.1-0.3,0.2-0.3c0.5,0,0.9-0.2,1.2-0.4c0.3-0.2,0.6-0.7,0.9-1.4l4.2-10.3c0-0.1,0.1-0.1,0.3-0.1c0.1,0,0.2,0,0.3,0.1
		l3.7,10.3c0.2,0.6,0.5,1,0.8,1.3c0.4,0.3,0.8,0.5,1.4,0.5C228.8,195.6,228.8,195.7,228.8,195.8z M223.4,190.5l-1.6-4.6l-1.7,4.6
		H223.4z"/>
	<path d="M248.9,183.8c0,0.2,0,0.2-0.1,0.2c-0.8,0.1-1.3,0.2-1.5,0.4c-0.3,0.2-0.4,0.6-0.4,1.1v5.6c0,1.6-0.4,2.9-1.2,3.8
		c-0.8,0.9-1.9,1.4-3.3,1.4c-1.6,0-2.9-0.4-3.8-1.3c-0.9-0.9-1.3-2-1.3-3.5v-5.9c0-0.4,0-0.7-0.1-0.9c-0.1-0.2-0.3-0.3-0.5-0.4
		c-0.3-0.1-0.7-0.2-1.2-0.2c-0.1,0-0.1-0.1-0.1-0.2s0-0.2,0.1-0.2c0.4,0,0.9,0,1.4,0.1c0.5,0,1,0.1,1.3,0.1s0.8,0,1.4-0.1
		c0.6,0,1-0.1,1.4-0.1c0.1,0,0.1,0.1,0.1,0.2s0,0.2-0.1,0.2c-0.5,0.1-0.9,0.1-1.2,0.2c-0.3,0.1-0.4,0.2-0.6,0.4
		c-0.1,0.2-0.2,0.5-0.2,0.9v5.7c0,1.5,0.3,2.6,0.8,3.3c0.6,0.7,1.5,1,2.7,1c2.4,0,3.6-1.5,3.6-4.5v-5.5c0-0.6-0.1-0.9-0.4-1.1
		c-0.3-0.2-0.8-0.3-1.5-0.4c-0.1,0-0.1-0.1-0.1-0.2s0-0.2,0.1-0.2c0.3,0,0.6,0,1.1,0.1c0.5,0,0.8,0.1,1.1,0.1s0.6,0,1.1-0.1
		c0.4,0,0.8-0.1,1.1-0.1C248.9,183.6,248.9,183.7,248.9,183.8z"/>
	<path d="M264.8,192.5c0,1.2-0.4,2.1-1.1,2.8c-0.7,0.7-1.7,1.1-2.9,1.1c-0.5,0-1.2-0.1-1.9-0.3c-0.7-0.2-1.2-0.3-1.7-0.3
		c0-1-0.1-2-0.2-3.1c0-0.1,0.1-0.1,0.3-0.1c0.1,0,0.2,0,0.2,0.1c0.3,1.1,0.7,1.9,1.2,2.4s1.2,0.7,2.1,0.7c0.7,0,1.3-0.2,1.7-0.6
		s0.6-1,0.6-1.8c0-0.5-0.2-0.9-0.5-1.4c-0.3-0.4-1.1-1-2.2-1.6c-1.3-0.8-2.2-1.4-2.6-1.9c-0.4-0.5-0.6-1.1-0.6-1.7
		c0-1,0.4-1.8,1.1-2.5c0.7-0.7,1.6-1,2.8-1c0.4,0,0.9,0.1,1.5,0.2c0.5,0.1,1,0.2,1.3,0.2c0.1,1.1,0.2,2,0.3,2.8
		c0,0.1-0.1,0.1-0.2,0.1c-0.2,0-0.3,0-0.3-0.1c-0.2-0.9-0.5-1.5-0.9-1.9c-0.4-0.4-1-0.6-1.7-0.6c-0.7,0-1.2,0.2-1.6,0.6
		c-0.4,0.4-0.6,0.9-0.6,1.6c0,0.4,0.2,0.8,0.5,1.2c0.3,0.4,1.1,0.9,2.2,1.6c1.3,0.8,2.2,1.4,2.6,1.9
		C264.6,191.3,264.8,191.9,264.8,192.5z"/>
	<path d="M284.2,193.1c-0.5,1-0.9,2-1.2,3c-2.3-0.1-3.9-0.1-4.8-0.1c-0.9,0-2.6,0-4.8,0.1c-0.1,0-0.1-0.1-0.1-0.3
		c0-0.1,0-0.2,0.1-0.2c0.5-0.1,0.9-0.1,1.1-0.2s0.4-0.2,0.6-0.4c0.1-0.2,0.2-0.5,0.2-0.9v-8.5c0-0.4,0-0.7-0.1-0.9
		c-0.1-0.2-0.3-0.3-0.5-0.4c-0.3-0.1-0.7-0.2-1.2-0.2c-0.1,0-0.1-0.1-0.1-0.2s0-0.2,0.1-0.2c1.5,0.1,3.1,0.1,4.6,0.1
		c1.6,0,3.1,0,4.7-0.1c0.1,0.9,0.3,1.8,0.6,2.8c0,0.1-0.1,0.2-0.3,0.2c-0.1,0-0.2,0-0.2-0.1c-0.4-1.4-1.4-2.1-2.8-2.1h-1.8
		c-0.7,0-1,0.4-1,1.1v4h2.3c0.6,0,1-0.1,1.2-0.4c0.2-0.3,0.4-0.8,0.4-1.5c0-0.1,0.1-0.1,0.2-0.1s0.2,0,0.2,0.1c0,0.3,0,0.7-0.1,1.1
		c0,0.4-0.1,0.8-0.1,1.1c0,0.3,0,0.6,0.1,1.1c0,0.5,0.1,0.9,0.1,1.2c0,0.1-0.1,0.1-0.2,0.1s-0.2,0-0.2-0.1c-0.1-0.7-0.2-1.2-0.5-1.5
		c-0.2-0.3-0.6-0.4-1.2-0.4H277v4.4c0,0.7,0.3,1.1,1,1.1h2c0.7,0,1.4-0.2,2.1-0.7c0.7-0.5,1.2-1,1.5-1.7c0-0.1,0.1-0.1,0.2-0.1
		c0.1,0,0.2,0,0.2,0.1C284.2,193,284.2,193.1,284.2,193.1z"/>
</g>
<g>
	<rect x="-37.4" y="118.1" class="st1" width="452.7" height="32.1"/>
	<path d="M50.4,120.2c0,0.2-0.1,0.3-0.2,0.5c-0.1,0.1-0.2,0.2-0.4,0.2c-1.1,0.1-2,0.5-2.7,1s-1.4,1.7-2.1,3.4l-11.2,25.3
		c-0.1,0.2-0.3,0.4-0.6,0.4c-0.3,0-0.5-0.1-0.6-0.4l-6.3-13.1l-7.2,13.1c-0.1,0.2-0.4,0.4-0.6,0.4c-0.3,0-0.5-0.1-0.6-0.4l-11-25.3
		c-0.7-1.6-1.4-2.7-2.2-3.3c-0.8-0.6-1.8-1-3.2-1.2c-0.1,0-0.2-0.1-0.3-0.2C1,120.6,1,120.5,1,120.3c0-0.4,0.1-0.6,0.4-0.6
		c1,0,2,0,3.1,0.1c1,0.1,1.9,0.1,2.8,0.1c0.9,0,2,0,3.2-0.1c1.3-0.1,2.4-0.1,3.4-0.1c0.2,0,0.4,0.2,0.4,0.6s-0.1,0.6-0.2,0.6
		c-1,0.1-1.8,0.3-2.3,0.8c-0.6,0.4-0.8,1-0.8,1.7c0,0.4,0.1,0.8,0.4,1.3l9,20.6l5.3-9.8l-4.8-10.1c-0.9-1.8-1.6-3-2.1-3.5
		c-0.6-0.5-1.4-0.8-2.5-1c-0.1,0-0.2-0.1-0.3-0.2c-0.1-0.1-0.1-0.3-0.1-0.4c0-0.4,0.1-0.6,0.3-0.6c1,0,1.9,0,2.7,0.1
		c0.8,0.1,1.6,0.1,2.5,0.1c0.9,0,1.8,0,2.8-0.1c1-0.1,2-0.1,3-0.1c0.2,0,0.4,0.2,0.4,0.6s-0.1,0.6-0.2,0.6c-2,0.1-2.9,0.7-2.9,1.7
		c0,0.4,0.2,1.1,0.7,2.1l3.2,6.5l3.2-5.9c0.4-0.8,0.7-1.5,0.7-2.1c0-1.4-1-2.1-2.9-2.2c-0.2,0-0.3-0.2-0.3-0.6c0-0.1,0-0.3,0.1-0.4
		s0.2-0.2,0.3-0.2c0.7,0,1.6,0,2.6,0.1c1,0.1,1.8,0.1,2.4,0.1c0.5,0,1.1,0,2-0.1c1.1-0.1,2-0.2,2.8-0.2c0.2,0,0.3,0.2,0.3,0.5
		c0,0.5-0.2,0.7-0.5,0.7c-1.1,0.1-2.1,0.4-2.8,1c-0.7,0.5-1.6,1.7-2.6,3.5l-4.2,7.8l5.7,11.7l8.5-19.6c0.3-0.7,0.4-1.4,0.4-2
		c0-1.4-1-2.2-2.9-2.3c-0.2,0-0.3-0.2-0.3-0.6s0.1-0.6,0.4-0.6c0.7,0,1.6,0,2.6,0.1c0.9,0.1,1.7,0.1,2.3,0.1c0.6,0,1.4,0,2.2-0.1
		c0.9-0.1,1.7-0.1,2.4-0.1C50.3,119.7,50.4,119.9,50.4,120.2z"/>
	<path d="M70.3,139.6c0,3.3-1,5.9-3.1,8c-2.1,2.1-4.8,3.1-8.2,3.1c-3.4,0-6.1-1-8.2-3.1c-2.1-2.1-3.1-4.7-3.1-8c0-3.3,1.1-6,3.2-8.1
		c2.1-2.1,4.8-3.2,8.2-3.2c3.4,0,6.1,1.1,8.2,3.2C69.3,133.7,70.3,136.4,70.3,139.6z M66.9,139.6c0-3-0.7-5.5-2.2-7.4
		c-1.5-1.9-3.4-2.9-5.8-2.9c-2.4,0-4.3,1-5.8,2.9c-1.5,1.9-2.2,4.4-2.2,7.4c0,3,0.7,5.4,2.2,7.3s3.4,2.8,5.8,2.8
		c2.4,0,4.3-0.9,5.8-2.8S66.9,142.6,66.9,139.6z"/>
	<path d="M101.8,149.8c0,0.3-0.1,0.4-0.2,0.4c-0.7,0-1.5,0-2.5-0.1c-0.9-0.1-1.7-0.1-2.3-0.1s-1.4,0-2.3,0.1
		c-0.9,0.1-1.8,0.1-2.4,0.1c-0.2,0-0.3-0.1-0.3-0.4c0-0.3,0.1-0.4,0.2-0.4c1.2-0.1,2-0.4,2.5-0.7c0.4-0.3,0.7-0.9,0.7-1.7v-0.2
		l-0.6-14.9L87,150.5c-0.1,0.2-0.2,0.2-0.4,0.2c-0.2,0-0.4-0.1-0.4-0.2l-7-17.9L78,146.8c0,0.2,0,0.3,0,0.5c0,0.7,0.2,1.2,0.7,1.5
		c0.5,0.3,1.3,0.5,2.5,0.6c0.1,0,0.2,0.2,0.2,0.4c0,0.3-0.1,0.4-0.3,0.4c-0.5,0-1.3,0-2.2-0.1c-0.9-0.1-1.5-0.1-2-0.1
		c-0.5,0-1.2,0-2.1,0.1c-0.9,0.1-1.5,0.1-2,0.1c-0.1,0-0.2-0.1-0.2-0.4c0-0.3,0.1-0.4,0.3-0.4c1.3-0.2,2.2-0.4,2.7-0.7
		c0.5-0.3,0.8-1,0.9-1.9l1.6-14.5c0-0.2,0-0.3,0-0.5c0-0.7-0.2-1.2-0.7-1.4c-0.5-0.3-1.3-0.5-2.6-0.7c-0.1,0-0.2-0.1-0.2-0.4
		c0-0.1,0-0.2,0.1-0.3s0.1-0.1,0.2-0.1c0.4,0,0.9,0,1.6,0.1c0.6,0.1,1,0.1,1.3,0.1c0.4,0,0.9,0,1.5-0.1c0.7-0.1,1.2-0.1,1.6-0.1
		l6.6,17.1l6.8-17.1c0.4,0,0.9,0,1.6,0.1c0.6,0.1,1.1,0.1,1.4,0.1c0.4,0,0.9,0,1.6-0.1c0.6-0.1,1.2-0.1,1.6-0.1
		c0.2,0,0.3,0.1,0.3,0.4s-0.1,0.4-0.2,0.4c-1.2,0.1-2,0.4-2.5,0.7c-0.4,0.3-0.7,0.9-0.7,1.7v0.3l0.7,14.5c0,0.7,0.1,1.2,0.3,1.5
		c0.2,0.3,0.5,0.5,1,0.7c0.5,0.2,1.1,0.3,2,0.4C101.7,149.4,101.8,149.5,101.8,149.8z"/>
	<path d="M122.9,145.2c-0.8,1.8-1.5,3.5-2,5.1c-3.9-0.1-6.6-0.2-8.3-0.2c-1.6,0-4.4,0.1-8.3,0.2c-0.2,0-0.2-0.1-0.2-0.4
		c0-0.3,0.1-0.4,0.2-0.4c0.9-0.1,1.5-0.2,2-0.4c0.5-0.2,0.8-0.4,0.9-0.7c0.2-0.3,0.3-0.8,0.3-1.5v-14.5c0-0.7-0.1-1.2-0.3-1.5
		c-0.2-0.3-0.5-0.5-0.9-0.7s-1.1-0.3-2-0.4c-0.2,0-0.2-0.1-0.2-0.4s0.1-0.4,0.2-0.4c2.6,0.1,5.2,0.2,7.9,0.2c2.7,0,5.4-0.1,8-0.2
		c0.2,1.6,0.6,3.2,1,4.7c0,0.2-0.2,0.3-0.5,0.3c-0.2,0-0.3-0.1-0.3-0.2c-0.8-2.4-2.4-3.6-4.9-3.6h-3.1c-1.2,0-1.8,0.6-1.8,1.8v6.9
		h3.9c1,0,1.7-0.2,2.1-0.7c0.4-0.5,0.6-1.3,0.8-2.5c0-0.2,0.1-0.2,0.4-0.2s0.4,0.1,0.4,0.2c0,0.5,0,1.2-0.1,1.9
		c-0.1,0.7-0.1,1.4-0.1,1.8c0,0.5,0,1.1,0.1,1.8c0.1,0.8,0.1,1.5,0.1,2c0,0.2-0.1,0.2-0.4,0.2s-0.4-0.1-0.4-0.2
		c-0.2-1.3-0.4-2.1-0.8-2.6s-1.1-0.8-2.1-0.8h-3.9v7.6c0,1.2,0.6,1.8,1.8,1.8h3.4c1.2,0,2.4-0.4,3.6-1.2c1.2-0.8,2.1-1.8,2.6-3
		c0-0.1,0.1-0.1,0.3-0.1c0.1,0,0.3,0,0.4,0.1C122.9,144.9,122.9,145,122.9,145.2z"/>
	<path d="M150.4,129.2c0,0.3-0.1,0.4-0.2,0.4c-1.3,0.1-2.2,0.4-2.6,0.7s-0.7,1-0.7,1.9l-0.3,18.2c0,0.2-0.1,0.3-0.4,0.3
		c-0.1,0-0.3-0.1-0.5-0.2l-15.9-17.9l-0.2,14.2c0,0.1,0,0.2,0,0.2c0,0.8,0.2,1.3,0.7,1.7c0.5,0.3,1.4,0.6,2.7,0.7
		c0.2,0,0.2,0.2,0.2,0.4c0,0.3-0.1,0.4-0.2,0.4c-0.5,0-1.3,0-2.2-0.1c-0.9-0.1-1.5-0.1-2-0.1c-0.5,0-1.2,0-2.1,0.1
		c-0.8,0.1-1.5,0.1-2,0.1c-0.2,0-0.2-0.1-0.2-0.4c0-0.3,0.1-0.4,0.3-0.4c1.3-0.2,2.1-0.4,2.6-0.7c0.5-0.3,0.7-1,0.8-1.9l0.5-14.5
		v-0.1c0-0.8-0.2-1.4-0.7-1.7c-0.5-0.3-1.4-0.6-2.7-0.7c-0.1,0-0.2-0.1-0.2-0.4s0.1-0.4,0.2-0.4c0.4,0,0.9,0,1.5,0.1
		c0.6,0.1,1,0.1,1.3,0.1c0.4,0,0.8,0,1.3-0.1c0.5-0.1,1-0.1,1.3-0.1l14.8,16.6v-13.1c0-0.9-0.2-1.5-0.7-1.8
		c-0.5-0.4-1.4-0.6-2.8-0.8c-0.2,0-0.2-0.2-0.2-0.4c0-0.3,0.1-0.4,0.2-0.4c0.6,0,1.3,0,2.2,0.1c0.9,0.1,1.5,0.1,2,0.1
		c0.5,0,1.2,0,2.1-0.1c0.8-0.1,1.5-0.1,2-0.1C150.4,128.8,150.4,129,150.4,129.2z"/>
	<path d="M210.6,120.2c0,0.2-0.1,0.3-0.2,0.5c-0.1,0.1-0.2,0.2-0.4,0.2c-1.1,0.1-2,0.5-2.7,1s-1.4,1.7-2.1,3.4l-11.2,25.3
		c-0.1,0.2-0.3,0.4-0.6,0.4c-0.3,0-0.5-0.1-0.6-0.4l-6.3-13.1l-7.2,13.1c-0.1,0.2-0.4,0.4-0.6,0.4c-0.3,0-0.5-0.1-0.6-0.4l-11-25.3
		c-0.7-1.6-1.4-2.7-2.2-3.3c-0.8-0.6-1.8-1-3.2-1.2c-0.1,0-0.2-0.1-0.3-0.2c-0.1-0.1-0.2-0.3-0.2-0.4c0-0.4,0.1-0.6,0.4-0.6
		c1,0,2,0,3.1,0.1c1,0.1,1.9,0.1,2.8,0.1c0.9,0,2,0,3.2-0.1c1.3-0.1,2.4-0.1,3.4-0.1c0.2,0,0.4,0.2,0.4,0.6s-0.1,0.6-0.2,0.6
		c-1,0.1-1.8,0.3-2.3,0.8c-0.6,0.4-0.8,1-0.8,1.7c0,0.4,0.1,0.8,0.4,1.3l9,20.6l5.3-9.8l-4.8-10.1c-0.9-1.8-1.6-3-2.1-3.5
		c-0.6-0.5-1.4-0.8-2.5-1c-0.1,0-0.2-0.1-0.3-0.2c-0.1-0.1-0.1-0.3-0.1-0.4c0-0.4,0.1-0.6,0.3-0.6c1,0,1.9,0,2.7,0.1
		c0.8,0.1,1.6,0.1,2.5,0.1c0.9,0,1.8,0,2.8-0.1c1-0.1,2-0.1,3-0.1c0.2,0,0.4,0.2,0.4,0.6s-0.1,0.6-0.2,0.6c-2,0.1-2.9,0.7-2.9,1.7
		c0,0.4,0.2,1.1,0.7,2.1l3.2,6.5l3.2-5.9c0.4-0.8,0.7-1.5,0.7-2.1c0-1.4-1-2.1-2.9-2.2c-0.2,0-0.3-0.2-0.3-0.6c0-0.1,0-0.3,0.1-0.4
		s0.2-0.2,0.3-0.2c0.7,0,1.6,0,2.6,0.1c1,0.1,1.8,0.1,2.4,0.1c0.5,0,1.1,0,2-0.1c1.1-0.1,2-0.2,2.8-0.2c0.2,0,0.3,0.2,0.3,0.5
		c0,0.5-0.2,0.7-0.5,0.7c-1.1,0.1-2.1,0.4-2.8,1c-0.7,0.5-1.6,1.7-2.6,3.5l-4.2,7.8l5.7,11.7l8.5-19.6c0.3-0.7,0.4-1.4,0.4-2
		c0-1.4-1-2.2-2.9-2.3c-0.2,0-0.3-0.2-0.3-0.6s0.1-0.6,0.4-0.6c0.7,0,1.6,0,2.6,0.1c0.9,0.1,1.7,0.1,2.3,0.1c0.6,0,1.4,0,2.2-0.1
		c0.9-0.1,1.7-0.1,2.4-0.1C210.5,119.7,210.6,119.9,210.6,120.2z"/>
	<path d="M232.3,149.8c0,0.3-0.1,0.4-0.2,0.4c-0.7,0-1.5,0-2.5-0.1c-0.9-0.1-1.7-0.1-2.3-0.1s-1.3,0-2.2,0.1
		c-0.9,0.1-1.6,0.1-2.3,0.1c-0.2,0-0.2-0.1-0.2-0.4c0-0.3,0.1-0.4,0.3-0.4c0.9-0.1,1.5-0.2,1.9-0.4s0.7-0.4,0.8-0.7s0.2-0.8,0.2-1.5
		v-6.9h-11.8v6.9c0,0.7,0.1,1.2,0.2,1.5s0.4,0.5,0.8,0.7s1.1,0.3,1.9,0.4c0.2,0,0.2,0.2,0.2,0.4c0,0.3-0.1,0.4-0.2,0.4
		c-0.7,0-1.5,0-2.3-0.1c-0.8-0.1-1.5-0.1-2.2-0.1s-1.4,0-2.3,0.1c-1,0.1-1.8,0.1-2.5,0.1c-0.2,0-0.2-0.1-0.2-0.4
		c0-0.3,0.1-0.4,0.2-0.4c1.2-0.1,2.1-0.4,2.5-0.7c0.4-0.3,0.7-1,0.7-1.9v-14.5c0-0.7-0.1-1.2-0.3-1.5c-0.2-0.3-0.5-0.5-0.9-0.7
		c-0.5-0.2-1.1-0.3-2-0.4c-0.2,0-0.2-0.1-0.2-0.4s0.1-0.4,0.2-0.4c0.7,0,1.5,0,2.5,0.1c0.9,0.1,1.7,0.1,2.3,0.1s1.3,0,2.2-0.1
		c0.9-0.1,1.6-0.1,2.3-0.1c0.2,0,0.2,0.1,0.2,0.4s-0.1,0.4-0.2,0.4c-0.8,0.1-1.4,0.2-1.8,0.4c-0.4,0.2-0.7,0.4-0.9,0.6
		s-0.2,0.8-0.2,1.6v6.7h11.8v-6.7c0-0.7-0.1-1.2-0.2-1.5s-0.4-0.5-0.8-0.7c-0.4-0.2-1.1-0.3-1.9-0.4c-0.2,0-0.2-0.1-0.2-0.4
		s0.1-0.4,0.2-0.4c0.7,0,1.5,0,2.3,0.1c0.8,0.1,1.5,0.1,2.2,0.1s1.4,0,2.3-0.1c1-0.1,1.8-0.1,2.5-0.1c0.2,0,0.2,0.1,0.2,0.4
		s-0.1,0.4-0.2,0.4c-0.9,0.1-1.5,0.2-2,0.4c-0.5,0.2-0.8,0.4-0.9,0.7c-0.2,0.3-0.3,0.8-0.3,1.5v14.5c0,1,0.2,1.6,0.7,1.9
		c0.4,0.3,1.3,0.5,2.5,0.7C232.2,149.4,232.3,149.5,232.3,149.8z"/>
	<path d="M258,139.6c0,3.3-1,5.9-3.1,8c-2.1,2.1-4.8,3.1-8.2,3.1c-3.4,0-6.1-1-8.2-3.1c-2.1-2.1-3.1-4.7-3.1-8c0-3.3,1.1-6,3.2-8.1
		c2.1-2.1,4.8-3.2,8.2-3.2c3.4,0,6.1,1.1,8.2,3.2C256.9,133.7,258,136.4,258,139.6z M254.6,139.6c0-3-0.7-5.5-2.2-7.4
		c-1.5-1.9-3.4-2.9-5.8-2.9c-2.4,0-4.3,1-5.8,2.9c-1.5,1.9-2.2,4.4-2.2,7.4c0,3,0.7,5.4,2.2,7.3s3.4,2.8,5.8,2.8
		c2.4,0,4.3-0.9,5.8-2.8S254.6,142.6,254.6,139.6z"/>
	<path d="M319.5,120.2c0,0.2-0.1,0.3-0.2,0.5c-0.1,0.1-0.2,0.2-0.4,0.2c-1.1,0.1-2,0.5-2.7,1s-1.4,1.7-2.1,3.4l-11.2,25.3
		c-0.1,0.2-0.3,0.4-0.6,0.4c-0.3,0-0.5-0.1-0.6-0.4l-6.3-13.1l-7.2,13.1c-0.1,0.2-0.4,0.4-0.6,0.4c-0.3,0-0.5-0.1-0.6-0.4l-11-25.3
		c-0.7-1.6-1.4-2.7-2.2-3.3c-0.8-0.6-1.8-1-3.2-1.2c-0.1,0-0.2-0.1-0.3-0.2c-0.1-0.1-0.2-0.3-0.2-0.4c0-0.4,0.1-0.6,0.4-0.6
		c1,0,2,0,3.1,0.1c1,0.1,1.9,0.1,2.8,0.1c0.9,0,2,0,3.2-0.1c1.3-0.1,2.4-0.1,3.4-0.1c0.2,0,0.4,0.2,0.4,0.6s-0.1,0.6-0.2,0.6
		c-1,0.1-1.8,0.3-2.3,0.8c-0.6,0.4-0.8,1-0.8,1.7c0,0.4,0.1,0.8,0.4,1.3l9,20.6l5.3-9.8l-4.8-10.1c-0.9-1.8-1.6-3-2.1-3.5
		c-0.6-0.5-1.4-0.8-2.5-1c-0.1,0-0.2-0.1-0.3-0.2c-0.1-0.1-0.1-0.3-0.1-0.4c0-0.4,0.1-0.6,0.3-0.6c1,0,1.9,0,2.7,0.1
		c0.8,0.1,1.6,0.1,2.5,0.1c0.9,0,1.8,0,2.8-0.1c1-0.1,2-0.1,3-0.1c0.2,0,0.4,0.2,0.4,0.6s-0.1,0.6-0.2,0.6c-2,0.1-2.9,0.7-2.9,1.7
		c0,0.4,0.2,1.1,0.7,2.1l3.2,6.5l3.2-5.9c0.4-0.8,0.7-1.5,0.7-2.1c0-1.4-1-2.1-2.9-2.2c-0.2,0-0.3-0.2-0.3-0.6c0-0.1,0-0.3,0.1-0.4
		s0.2-0.2,0.3-0.2c0.7,0,1.6,0,2.6,0.1c1,0.1,1.8,0.1,2.4,0.1c0.5,0,1.1,0,2-0.1c1.1-0.1,2-0.2,2.8-0.2c0.2,0,0.3,0.2,0.3,0.5
		c0,0.5-0.2,0.7-0.5,0.7c-1.1,0.1-2.1,0.4-2.8,1c-0.7,0.5-1.6,1.7-2.6,3.5l-4.2,7.8l5.7,11.7l8.5-19.6c0.3-0.7,0.4-1.4,0.4-2
		c0-1.4-1-2.2-2.9-2.3c-0.2,0-0.3-0.2-0.3-0.6s0.1-0.6,0.4-0.6c0.7,0,1.6,0,2.6,0.1c0.9,0.1,1.7,0.1,2.3,0.1c0.6,0,1.4,0,2.2-0.1
		c0.9-0.1,1.7-0.1,2.4-0.1C319.4,119.7,319.5,119.9,319.5,120.2z"/>
	<path d="M327.1,149.8c0,0.3-0.1,0.4-0.2,0.4c-0.7,0-1.5,0-2.4-0.1c-0.9-0.1-1.7-0.1-2.3-0.1s-1.4,0-2.3,0.1c-1,0.1-1.8,0.1-2.5,0.1
		c-0.2,0-0.2-0.1-0.2-0.4c0-0.3,0.1-0.4,0.2-0.4c1.2-0.1,2.1-0.4,2.5-0.7c0.4-0.3,0.7-1,0.7-1.9v-14.5c0-0.7-0.1-1.2-0.3-1.5
		s-0.5-0.5-0.9-0.7c-0.5-0.2-1.1-0.3-2-0.4c-0.2,0-0.2-0.1-0.2-0.4s0.1-0.4,0.2-0.4c0.7,0,1.5,0,2.5,0.1c0.9,0.1,1.7,0.1,2.3,0.1
		s1.4,0,2.3-0.1c0.9-0.1,1.8-0.1,2.4-0.1c0.2,0,0.2,0.1,0.2,0.4s-0.1,0.4-0.2,0.4c-0.9,0.1-1.5,0.2-2,0.4c-0.5,0.2-0.8,0.4-0.9,0.7
		c-0.2,0.3-0.3,0.8-0.3,1.5v14.5c0,0.7,0.1,1.2,0.3,1.5c0.2,0.3,0.5,0.5,0.9,0.7c0.4,0.2,1.1,0.3,2,0.4
		C327,149.4,327.1,149.5,327.1,149.8z"/>
	<path d="M356.1,129.2c0,0.3-0.1,0.4-0.2,0.4c-1.3,0.1-2.2,0.4-2.6,0.7s-0.7,1-0.7,1.9l-0.3,18.2c0,0.2-0.1,0.3-0.4,0.3
		c-0.1,0-0.3-0.1-0.5-0.2l-15.9-17.9l-0.2,14.2c0,0.1,0,0.2,0,0.2c0,0.8,0.2,1.3,0.7,1.7c0.5,0.3,1.4,0.6,2.7,0.7
		c0.2,0,0.2,0.2,0.2,0.4c0,0.3-0.1,0.4-0.2,0.4c-0.5,0-1.3,0-2.2-0.1c-0.9-0.1-1.5-0.1-2-0.1c-0.5,0-1.2,0-2.1,0.1
		c-0.8,0.1-1.5,0.1-2,0.1c-0.2,0-0.2-0.1-0.2-0.4c0-0.3,0.1-0.4,0.3-0.4c1.3-0.2,2.1-0.4,2.6-0.7c0.5-0.3,0.7-1,0.8-1.9l0.5-14.5
		v-0.1c0-0.8-0.2-1.4-0.7-1.7c-0.5-0.3-1.4-0.6-2.7-0.7c-0.1,0-0.2-0.1-0.2-0.4s0.1-0.4,0.2-0.4c0.4,0,0.9,0,1.5,0.1
		c0.6,0.1,1,0.1,1.3,0.1c0.4,0,0.8,0,1.3-0.1c0.5-0.1,1-0.1,1.3-0.1l14.8,16.6v-13.1c0-0.9-0.2-1.5-0.7-1.8
		c-0.5-0.4-1.4-0.6-2.8-0.8c-0.2,0-0.2-0.2-0.2-0.4c0-0.3,0.1-0.4,0.2-0.4c0.6,0,1.3,0,2.2,0.1c0.9,0.1,1.5,0.1,2,0.1
		c0.5,0,1.2,0,2.1-0.1c0.8-0.1,1.5-0.1,2-0.1C356,128.8,356.1,129,356.1,129.2z"/>
	<path d="M376.7,145.2c-0.8,1.8-1.5,3.5-2,5.1c-3.9-0.1-6.6-0.2-8.3-0.2c-1.6,0-4.4,0.1-8.3,0.2c-0.2,0-0.2-0.1-0.2-0.4
		c0-0.3,0.1-0.4,0.2-0.4c0.9-0.1,1.5-0.2,2-0.4c0.5-0.2,0.8-0.4,0.9-0.7c0.2-0.3,0.3-0.8,0.3-1.5v-14.5c0-0.7-0.1-1.2-0.3-1.5
		c-0.2-0.3-0.5-0.5-0.9-0.7s-1.1-0.3-2-0.4c-0.2,0-0.2-0.1-0.2-0.4s0.1-0.4,0.2-0.4c2.6,0.1,5.2,0.2,7.9,0.2c2.7,0,5.4-0.1,8-0.2
		c0.2,1.6,0.6,3.2,1,4.7c0,0.2-0.2,0.3-0.5,0.3c-0.2,0-0.3-0.1-0.3-0.2c-0.8-2.4-2.4-3.6-4.9-3.6h-3.1c-1.2,0-1.8,0.6-1.8,1.8v6.9
		h3.9c1,0,1.7-0.2,2.1-0.7c0.4-0.5,0.6-1.3,0.8-2.5c0-0.2,0.1-0.2,0.4-0.2s0.4,0.1,0.4,0.2c0,0.5,0,1.2-0.1,1.9
		c-0.1,0.7-0.1,1.4-0.1,1.8c0,0.5,0,1.1,0.1,1.8c0.1,0.8,0.1,1.5,0.1,2c0,0.2-0.1,0.2-0.4,0.2s-0.4-0.1-0.4-0.2
		c-0.2-1.3-0.4-2.1-0.8-2.6s-1.1-0.8-2.1-0.8h-3.9v7.6c0,1.2,0.6,1.8,1.8,1.8h3.4c1.2,0,2.4-0.4,3.6-1.2c1.2-0.8,2.1-1.8,2.6-3
		c0-0.1,0.1-0.1,0.3-0.1c0.1,0,0.3,0,0.4,0.1C376.6,144.9,376.7,145,376.7,145.2z"/>
</g>
<g>
	<path d="M225,218.9c3.9,0.2,7.7,0.4,11.5,0.5s7.7,0.4,11.5,0.8c-3.9,0.2-7.7,0.4-11.5,0.6c-3.8,0.2-7.7,0.3-11.5,0.3
		c-1.9,0.2-3.8,0.4-5.8,0.4c-1.9,0-3.8,0.1-5.8,0.1h-9.4c-0.2,0-0.4,0.1-0.6,0.2c-0.1,0.1-0.2,0.1-0.3,0.2c-0.9,0.6-1.7,1.2-2.6,1.5
		c-0.9,0.4-1.7,0.6-2.6,0.6c-0.8,0-1.7-0.3-2.5-0.8c-0.8-0.5-1.5-1.5-2.2-3c-0.6,0.2-1.2,0.5-1.6,0.9s-0.9,0.7-1.3,0.9
		c-0.9,0.6-1.7,1.2-2.6,1.5c-0.9,0.4-1.7,0.6-2.6,0.6c-0.9,0-1.7-0.3-2.5-0.8c-0.8-0.5-1.5-1.5-2.2-3c-0.6,0.2-1.2,0.5-1.7,0.9
		c-0.5,0.4-0.9,0.7-1.3,0.9c-0.9,0.6-1.7,1.2-2.6,1.5c-0.9,0.4-1.7,0.6-2.6,0.6c-1.2,0-2.5-0.8-3.8-2.5h-4.3c-1.9,0-3.8,0-5.8-0.1
		c-1.9,0-3.8-0.2-5.8-0.4c-3.9,0-7.7-0.1-11.5-0.3c-3.8-0.2-7.7-0.4-11.5-0.6c3.9-0.4,7.7-0.7,11.5-0.8s7.7-0.3,11.5-0.5h11.5
		l11.5-0.4c0.2,0,0.5-0.1,0.7-0.3c0.2-0.2,0.6-0.4,1-0.6c0.9-0.4,1.6-0.8,2.4-1.1s1.5-0.5,2.3-0.5c0.9,0,1.7,0.3,2.6,0.8
		c0.9,0.5,1.7,1.5,2.5,3c0.4-0.4,0.9-0.8,1.4-1.1c0.5-0.3,1-0.7,1.7-1.1c0.8-0.4,1.6-0.8,2.3-1.1c0.7-0.3,1.5-0.5,2.4-0.5
		c0.9,0,1.7,0.3,2.6,0.8c0.8,0.5,1.7,1.5,2.6,3c0.4-0.4,0.9-0.8,1.4-1.1c0.5-0.3,1-0.7,1.6-1.1c0.9-0.4,1.6-0.8,2.4-1.1
		c0.7-0.3,1.5-0.5,2.3-0.5c0.9,0,1.6,0.2,2.3,0.7c0.7,0.5,1.3,1.2,2,2.3h1.3H225z M180.7,220.2c0.9,0.5,1.8,0.7,2.7,0.7
		c0.6,0,1.3-0.1,2-0.3c0.2,0,0.5-0.1,0.9-0.3c0.3-0.2,0.6-0.4,0.9-0.6c-0.7-0.7-1.5-1-2.4-1c-0.7,0-1.5,0.2-2.3,0.6
		c-0.2,0-0.5,0.1-0.8,0.3C181.2,219.8,180.9,220,180.7,220.2z M193.5,220.2c1,0.5,1.9,0.7,2.7,0.7c0.6,0,1.2-0.1,2-0.3
		c0.2,0,0.5-0.1,0.9-0.3c0.4-0.2,0.6-0.4,0.9-0.6c-0.7-0.7-1.5-1-2.4-1c-0.7,0-1.5,0.2-2.3,0.6c-0.2,0-0.5,0.1-0.9,0.3
		C194,219.8,193.7,220,193.5,220.2z"/>
</g>
<g>
	<g>
		<rect x="116.7" y="904.4" class="st1" width="149.1" height="14.7"/>
		<path d="M132.2,906.7c0,0.1-0.1,0.1-0.2,0.1c-0.1,0-0.1,0-0.1-0.1c-0.1-0.5-0.4-0.8-0.7-1.1s-0.8-0.4-1.2-0.4h-1.1
			c-0.5,0-0.7,0.2-0.7,0.7v2.7h1.4c0.4,0,0.7-0.1,0.8-0.3c0.1-0.2,0.2-0.5,0.3-1c0-0.1,0.1-0.1,0.2-0.1c0.1,0,0.2,0,0.2,0.1
			c0,0.2,0,0.5,0,0.8c0,0.3,0,0.5,0,0.7c0,0.2,0,0.4,0,0.7c0,0.3,0,0.6,0,0.8c0,0.1-0.1,0.1-0.2,0.1c-0.1,0-0.2,0-0.2-0.1
			c-0.1-0.5-0.2-0.8-0.3-1c-0.1-0.2-0.4-0.3-0.8-0.3h-1.4v2.8c0,0.3,0,0.5,0.1,0.6c0.1,0.1,0.2,0.2,0.4,0.3c0.2,0.1,0.4,0.1,0.8,0.2
			c0.1,0,0.1,0.1,0.1,0.2c0,0.1,0,0.2-0.1,0.2c-0.3,0-0.6,0-1,0c-0.4,0-0.7,0-0.9,0s-0.5,0-0.9,0c-0.4,0-0.7,0-1,0
			c-0.1,0-0.1-0.1-0.1-0.2c0-0.1,0-0.2,0.1-0.2c0.3,0,0.6-0.1,0.8-0.2c0.2-0.1,0.3-0.2,0.4-0.3c0.1-0.1,0.1-0.3,0.1-0.6v-5.7
			c0-0.3,0-0.5-0.1-0.6c-0.1-0.1-0.2-0.2-0.4-0.3c-0.2-0.1-0.4-0.1-0.8-0.2c-0.1,0-0.1-0.1-0.1-0.2c0-0.1,0-0.2,0.1-0.2
			c1,0,2,0.1,3.1,0.1c1,0,2,0,3-0.1C131.9,905.5,132.1,906.1,132.2,906.7z"/>
		<path d="M147.1,909.1c0,1.3-0.4,2.3-1.2,3.1c-0.8,0.8-1.9,1.2-3.2,1.2s-2.4-0.4-3.2-1.2c-0.8-0.8-1.2-1.8-1.2-3.1
			c0-1.3,0.4-2.3,1.2-3.2s1.9-1.2,3.2-1.2c1.3,0,2.4,0.4,3.2,1.2S147.1,907.8,147.1,909.1z M145.8,909.1c0-1.2-0.3-2.1-0.9-2.9
			c-0.6-0.7-1.3-1.1-2.2-1.1c-0.9,0-1.7,0.4-2.2,1.1c-0.6,0.7-0.8,1.7-0.8,2.9c0,1.2,0.3,2.1,0.8,2.8c0.6,0.7,1.3,1.1,2.3,1.1
			c0.9,0,1.7-0.4,2.3-1.1C145.5,911.2,145.8,910.2,145.8,909.1z"/>
		<path d="M161.6,913c0,0.1,0,0.2-0.1,0.2c-0.1,0-0.4,0-0.7,0c-0.2,0-0.4,0-0.5,0c-0.1,0-0.3,0-0.5,0c-0.2,0-0.4,0-0.5,0l-1.8-3
			c-0.3-0.4-0.5-0.7-0.6-0.8s-0.5-0.2-1-0.2v2.6c0,0.3,0,0.5,0.1,0.6c0.1,0.1,0.2,0.2,0.4,0.3c0.2,0.1,0.4,0.1,0.8,0.2
			c0.1,0,0.1,0.1,0.1,0.2c0,0.1,0,0.2-0.1,0.2c-0.3,0-0.6,0-1,0c-0.4,0-0.7,0-0.9,0s-0.5,0-0.9,0c-0.4,0-0.7,0-1,0
			c-0.1,0-0.1-0.1-0.1-0.2c0-0.1,0-0.2,0.1-0.2c0.3,0,0.6-0.1,0.8-0.2c0.2-0.1,0.3-0.2,0.4-0.3c0.1-0.1,0.1-0.3,0.1-0.6v-5.7
			c0-0.3,0-0.5-0.1-0.6c-0.1-0.1-0.2-0.2-0.4-0.3c-0.2-0.1-0.4-0.1-0.8-0.2c-0.1,0-0.1-0.1-0.1-0.2c0-0.1,0-0.2,0.1-0.2
			c0.3,0,0.6,0,1,0c0.4,0,0.6,0,0.9,0s0.5,0,0.9,0c0.4,0,0.7,0,1,0c0.9,0,1.6,0.2,2.1,0.6c0.5,0.4,0.7,0.9,0.7,1.6
			c0,0.4-0.2,0.8-0.5,1.2c-0.3,0.4-0.8,0.6-1.3,0.8l1.8,3c0.2,0.3,0.4,0.5,0.6,0.6c0.3,0.1,0.6,0.2,1,0.3
			C161.6,912.9,161.6,912.9,161.6,913z M158.5,907c0-1.2-0.5-1.8-1.5-1.8c-0.3,0-0.6,0-0.8,0.1c-0.2,0.1-0.3,0.1-0.3,0.3
			c-0.1,0.1-0.1,0.3-0.1,0.6v2.7c0.2,0,0.5,0,0.9,0c0.6,0,1.1-0.2,1.4-0.5S158.5,907.7,158.5,907z"/>
		<path d="M182.9,913c0,0.1,0,0.2-0.1,0.2c-0.3,0-0.6,0-0.9,0c-0.3,0-0.6,0-0.8,0c-0.2,0-0.5,0-0.9,0c-0.4,0-0.7,0-1,0
			c-0.1,0-0.1-0.1-0.1-0.2s0-0.2,0.1-0.2c0.4,0,0.6-0.1,0.8-0.1c0.2-0.1,0.2-0.2,0.2-0.4c0-0.1,0-0.3-0.1-0.5l-0.7-2h-2.5l-0.7,1.9
			c-0.1,0.2-0.1,0.4-0.1,0.6c0,0.4,0.3,0.5,1,0.6c0,0,0.1,0.1,0.1,0.2s0,0.2-0.1,0.2c-0.2,0-0.5,0-0.8,0c-0.3,0-0.5,0-0.7,0
			c-0.2,0-0.4,0-0.6,0c-0.3,0-0.5,0-0.7,0c-0.1,0-0.1,0-0.1-0.2c0-0.1,0-0.2,0.1-0.2c0.3,0,0.6-0.1,0.8-0.3c0.2-0.2,0.4-0.5,0.6-0.9
			l2.8-6.9c0-0.1,0.1-0.1,0.2-0.1c0.1,0,0.2,0,0.2,0.1l2.5,6.9c0.1,0.4,0.3,0.7,0.6,0.9c0.2,0.2,0.6,0.3,1,0.3
			C182.8,912.9,182.9,912.9,182.9,913z M179.2,909.5l-1.1-3.1l-1.1,3.1H179.2z"/>
		<path d="M204.3,911c-0.1,0.6-0.3,1.3-0.4,2c-0.2,0-0.6,0.1-1.2,0.2c-0.8,0.1-1.3,0.2-1.7,0.2c-0.9,0-1.7-0.2-2.4-0.5
			c-0.7-0.4-1.2-0.9-1.6-1.5c-0.4-0.7-0.6-1.4-0.6-2.2c0-0.8,0.2-1.6,0.6-2.2c0.4-0.7,1-1.2,1.7-1.6c0.7-0.4,1.5-0.6,2.4-0.6
			c0.4,0,0.9,0,1.5,0.1c0.5,0.1,0.8,0.1,1.1,0.1c0.1,0.6,0.1,1.2,0.3,2c0,0.1-0.1,0.1-0.2,0.1c-0.1,0-0.1,0-0.1-0.1
			c-0.1-0.5-0.5-1-0.9-1.3c-0.5-0.4-1-0.5-1.6-0.5c-0.9,0-1.7,0.4-2.4,1.2c-0.6,0.8-1,1.7-1,2.8c0,1.1,0.3,2,0.9,2.8
			c0.6,0.8,1.4,1.1,2.3,1.1c1.4,0,2.4-0.7,3-2c0-0.1,0.1-0.1,0.2-0.1C204.3,910.9,204.3,910.9,204.3,911z"/>
		<path d="M218.7,913c0,0.1,0,0.2-0.1,0.2c-0.3,0-0.6,0-0.9,0c-0.3,0-0.6,0-0.8,0c-0.2,0-0.5,0-0.9,0c-0.4,0-0.7,0-1,0
			c-0.1,0-0.1-0.1-0.1-0.2s0-0.2,0.1-0.2c0.4,0,0.6-0.1,0.8-0.1s0.2-0.2,0.2-0.4c0-0.1,0-0.3-0.1-0.5l-0.7-2h-2.5l-0.7,1.9
			c-0.1,0.2-0.1,0.4-0.1,0.6c0,0.4,0.3,0.5,1,0.6c0,0,0.1,0.1,0.1,0.2s0,0.2-0.1,0.2c-0.2,0-0.5,0-0.8,0c-0.3,0-0.5,0-0.7,0
			c-0.2,0-0.4,0-0.6,0c-0.3,0-0.5,0-0.7,0c-0.1,0-0.1,0-0.1-0.2c0-0.1,0-0.2,0.1-0.2c0.3,0,0.6-0.1,0.8-0.3c0.2-0.2,0.4-0.5,0.6-0.9
			l2.8-6.9c0-0.1,0.1-0.1,0.2-0.1c0.1,0,0.2,0,0.2,0.1l2.5,6.9c0.1,0.4,0.3,0.7,0.6,0.9c0.2,0.2,0.6,0.3,1,0.3
			C218.7,912.9,218.7,912.9,218.7,913z M215.1,909.5l-1.1-3.1l-1.1,3.1H215.1z"/>
		<path d="M232.6,905c0,0.1,0,0.2-0.1,0.2c-0.5,0.1-0.8,0.2-1,0.3s-0.3,0.4-0.3,0.7v3.8c0,1.1-0.3,1.9-0.8,2.5s-1.2,0.9-2.2,0.9
			c-1.1,0-1.9-0.3-2.5-0.9s-0.9-1.4-0.9-2.4v-4c0-0.3,0-0.5-0.1-0.6c-0.1-0.1-0.2-0.2-0.4-0.3c-0.2-0.1-0.4-0.1-0.8-0.2
			c-0.1,0-0.1-0.1-0.1-0.2c0-0.1,0-0.2,0.1-0.2c0.3,0,0.6,0,1,0c0.4,0,0.7,0,0.9,0s0.5,0,0.9,0c0.4,0,0.7,0,1,0
			c0.1,0,0.1,0.1,0.1,0.2c0,0.1,0,0.2-0.1,0.2c-0.3,0-0.6,0.1-0.8,0.2c-0.2,0.1-0.3,0.2-0.4,0.3s-0.1,0.3-0.1,0.6v3.8
			c0,1,0.2,1.7,0.6,2.2c0.4,0.5,1,0.7,1.8,0.7c1.6,0,2.4-1,2.4-3v-3.6c0-0.4-0.1-0.6-0.3-0.7c-0.2-0.1-0.5-0.2-1-0.3
			c-0.1,0-0.1-0.1-0.1-0.2c0-0.1,0-0.2,0.1-0.2c0.2,0,0.4,0,0.7,0c0.3,0,0.6,0,0.7,0s0.4,0,0.7,0c0.3,0,0.5,0,0.7,0
			C232.6,904.8,232.6,904.9,232.6,905z"/>
		<path d="M243.7,910.8c0,0.8-0.2,1.4-0.7,1.9c-0.5,0.5-1.1,0.7-1.9,0.7c-0.4,0-0.8-0.1-1.3-0.2c-0.5-0.1-0.8-0.2-1.1-0.2
			c0-0.7-0.1-1.4-0.1-2c0-0.1,0.1-0.1,0.2-0.1c0.1,0,0.1,0,0.2,0.1c0.2,0.7,0.5,1.3,0.8,1.6c0.3,0.3,0.8,0.5,1.4,0.5
			c0.5,0,0.9-0.1,1.1-0.4c0.3-0.3,0.4-0.7,0.4-1.2c0-0.3-0.1-0.6-0.3-0.9c-0.2-0.3-0.7-0.6-1.5-1.1c-0.9-0.5-1.4-0.9-1.7-1.3
			c-0.3-0.3-0.4-0.7-0.4-1.2c0-0.7,0.2-1.2,0.7-1.7c0.5-0.5,1.1-0.7,1.8-0.7c0.3,0,0.6,0,1,0.1c0.3,0.1,0.6,0.1,0.9,0.1
			c0,0.7,0.1,1.3,0.2,1.9c0,0.1-0.1,0.1-0.2,0.1c-0.1,0-0.2,0-0.2-0.1c-0.1-0.6-0.3-1-0.6-1.3s-0.6-0.4-1.1-0.4
			c-0.5,0-0.8,0.1-1.1,0.4c-0.3,0.3-0.4,0.6-0.4,1.1c0,0.3,0.1,0.6,0.3,0.8s0.7,0.6,1.4,1c0.9,0.5,1.5,0.9,1.7,1.3
			C243.6,910,243.7,910.4,243.7,910.8z"/>
		<path d="M257.1,911.2c-0.3,0.7-0.6,1.4-0.8,2c-1.5,0-2.6-0.1-3.2-0.1c-0.6,0-1.7,0-3.2,0.1c-0.1,0-0.1-0.1-0.1-0.2
			c0-0.1,0-0.2,0.1-0.2c0.3,0,0.6-0.1,0.8-0.2c0.2-0.1,0.3-0.2,0.4-0.3c0.1-0.1,0.1-0.3,0.1-0.6v-5.7c0-0.3,0-0.5-0.1-0.6
			c-0.1-0.1-0.2-0.2-0.4-0.3c-0.2-0.1-0.4-0.1-0.8-0.2c-0.1,0-0.1-0.1-0.1-0.2c0-0.1,0-0.2,0.1-0.2c1,0,2,0.1,3.1,0.1
			c1.1,0,2.1,0,3.1-0.1c0.1,0.6,0.2,1.2,0.4,1.8c0,0.1-0.1,0.1-0.2,0.1c-0.1,0-0.1,0-0.1-0.1c-0.3-0.9-0.9-1.4-1.9-1.4H253
			c-0.5,0-0.7,0.2-0.7,0.7v2.7h1.5c0.4,0,0.7-0.1,0.8-0.3c0.1-0.2,0.2-0.5,0.3-1c0-0.1,0.1-0.1,0.2-0.1s0.2,0,0.2,0.1
			c0,0.2,0,0.5,0,0.8c0,0.3,0,0.5,0,0.7c0,0.2,0,0.4,0,0.7c0,0.3,0,0.6,0,0.8c0,0.1-0.1,0.1-0.2,0.1s-0.2,0-0.2-0.1
			c-0.1-0.5-0.2-0.8-0.3-1c-0.2-0.2-0.4-0.3-0.8-0.3h-1.5v3c0,0.5,0.2,0.7,0.7,0.7h1.3c0.5,0,0.9-0.2,1.4-0.5c0.5-0.3,0.8-0.7,1-1.2
			c0,0,0-0.1,0.1-0.1c0.1,0,0.1,0,0.2,0S257.1,911.2,257.1,911.2z"/>
	</g>
	<g>
		<rect x="107.2" y="800.9" class="st1" width="138" height="52.9"/>
		<path d="M151.5,804.2c4,0,7.4-0.8,10.3-2.4l0.7,1.1c-2.7,1.6-5.6,2.4-8.9,2.5c-2.6,2.5-4.8,6.6-6.6,12.4
			c-1.8,5.8-2.7,11.9-2.7,18.5c0,4,0.7,6.8,2.2,8.5c1.5,1.7,3.2,2.5,5.2,2.5c1.3,0,2.6-0.3,3.8-0.9s2.2-1.2,2.9-1.8
			c0.7-0.6,1.6-1.4,2.7-2.5c-0.7-2-1-5.1-1-9.3s0.7-8.7,2.2-13.6c1.4-4.9,3.4-8.8,5.8-11.9c2.4-3.1,4.9-4.6,7.4-4.6
			c1.2,0,2.2,0.3,2.8,1c0.6,0.7,1,1.9,1,3.6c0,3.5-1.1,8.2-3.4,14c-2.3,5.8-5.2,11.1-8.7,15.9c0.4,3.2,1.4,5.5,3,7.1
			c1.7,1.5,3.8,2.3,6.3,2.3c4.7,0,8.9-4.5,12.7-13.5c2.9-6.9,4.3-14.1,4.3-21.3c0-7.3-1.4-12.3-4.2-15.1l0.9-0.9
			c3.1,3.1,4.7,8.5,4.7,16.2c0,7.2-1.5,14.4-4.4,21.7c-4.6,11.2-10.9,16.7-18.9,16.7c-4.1,0-7.1-1.6-9-4.9c-0.5-0.8-0.8-1.4-1.1-1.9
			c-4.4,4.5-9.2,6.8-14.5,6.8c-3.4,0-6-1.1-7.7-3.4s-2.5-5.1-2.5-8.3s0.4-6.5,1.3-9.8c0.8-3.2,1.8-6,2.9-8.3c1.1-2.3,2.5-4.6,4-6.8
			c2.1-3.2,4.4-5.9,6.6-8.2c-1.4,0-3.1-0.1-5.3-0.4c-4.6-0.2-7-0.4-7.4-0.4c-5.8,0-10.3,1.5-13.6,4.4c-3.3,2.9-5,6.9-5,12.1
			c0,2.4,0.6,4.6,1.7,6.8c0.6,1.1,1.8,2.4,3.8,3.8c0.4,0.3,1.1,0.7,2,1.1s1.4,0.6,1.4,0.6l1.1,0.3l-0.2,1.3c-0.8,0-1.9-0.4-3.4-1.2
			c-1.5-0.8-2.8-1.7-3.8-2.6c-1.1-0.9-2-2.3-2.7-4s-1.1-3.7-1.1-5.9c0-5.5,1.8-9.8,5.4-13s8.5-4.8,14.6-4.8c2.5,0,4.8,0.1,6.8,0.4
			C148,804.1,149.8,804.2,151.5,804.2z M167,834.2v0.9c0.4-0.6,1-1.4,1.6-2.5c2.7-4.2,4.9-8.7,6.6-13.5c1.7-4.8,2.6-8.7,2.6-11.8
			c0-2.1-0.8-3.2-2.4-3.2c-0.6,0-1.3,0.2-2,0.5c-1.4,1.3-2.7,3.8-4,7.6C167.8,817.1,167,824.4,167,834.2z"/>
		<path d="M200.4,841.5c-1.3,0-2.4-0.3-3.1-1s-1.1-1.6-1.1-2.6c0-0.4,0.2-2,0.7-4.8l1.5-7.9h-1.8l0.1-0.8h1.9c2.2,0,3.8-0.1,4.8-0.3
			l0.6-0.1l-3,16.6c0.9-0.1,1.6-0.5,2.2-1.2l0.7,0.5C202.8,841,201.7,841.5,200.4,841.5z M199.8,819.8c-0.6-0.6-0.9-1.4-0.9-2.2
			s0.3-1.6,0.9-2.3c0.6-0.6,1.4-0.9,2.2-0.9c0.9,0,1.6,0.3,2.3,0.9c0.6,0.6,0.9,1.4,0.9,2.3s-0.3,1.6-0.9,2.2
			c-0.6,0.6-1.4,0.9-2.3,0.9C201.2,820.7,200.4,820.4,199.8,819.8z"/>
		<path d="M221.7,840.6c0.7,0,1.4-0.4,2.2-1.2l0.7,0.5c-0.2,0.4-0.7,0.8-1.4,1.1c-0.7,0.3-1.5,0.5-2.3,0.5c-2.7,0-4-1.2-4-3.6
			c0-1,0.3-2.9,0.8-5.5c0.5-2.6,0.8-4.4,0.8-5.2c0-1.3-0.6-1.9-1.8-1.9c-1,0-1.9,0.6-2.8,1.9c-0.9,1.3-1.6,3-2.2,5.2l-1.5,8.2
			c0.9-0.1,1.7-0.5,2.2-1.2l0.7,0.5c-0.9,1.1-2,1.6-3.3,1.6c-1.3,0-2.4-0.3-3.1-1s-1.1-1.6-1.1-2.6c0-0.4,0.2-2,0.7-4.8l1.5-8.1
			c-0.9,0.1-1.6,0.5-2.2,1.2l-0.7-0.5c0.9-1.1,2-1.6,3.3-1.6s2.4,0.3,3.1,1c0.7,0.7,1.1,1.6,1.1,2.9v0.3c1.2-2.8,3.1-4.1,5.6-4.1
			c1.7,0,3.1,0.5,4,1.5c1,1,1.5,2.3,1.5,4.1c0,0.9-0.3,2.7-0.8,5.3C222,837.4,221.7,839.3,221.7,840.6z"/>
		<path d="M234.6,824c3.7,0,5.6,1.5,5.6,4.4c0,1.8-0.9,3.2-2.6,4.2c-1.7,1-4.2,1.4-7.5,1.5c-0.1,1.1-0.1,1.9-0.1,2.5
			c0,1.3,0.3,2.3,0.9,2.9c0.6,0.6,1.4,0.9,2.3,0.9c0.9,0,1.7-0.2,2.5-0.5c0.7-0.4,1.3-0.8,1.8-1.3c0.4-0.5,0.8-1,1.1-1.5
			c0.6-1,0.9-1.6,0.9-1.8l0.8,0.4c-0.1,0.5-0.4,1.1-0.8,1.9c-0.4,0.8-0.9,1.4-1.5,1.9c-0.5,0.5-1.3,1-2.3,1.4
			c-1,0.4-2.2,0.6-3.4,0.6c-2.4,0-4.2-0.6-5.4-1.7c-1.2-1.1-1.8-2.7-1.8-4.6c0-3.5,0.9-6.2,2.6-8.2C229.3,825,231.7,824,234.6,824z
			 M238.2,826.1c-0.6-0.6-1.4-0.9-2.6-0.9s-2.2,0.7-3.3,2c-1.1,1.3-1.8,3.3-2.1,6c5.9,0,8.8-1.6,8.8-4.7
			C239.1,827.5,238.8,826.7,238.2,826.1z"/>
	</g>
	<g>
		<path d="M161.1,717.3c0,0.2-0.1,0.3-0.2,0.5c-0.1,0.1-0.2,0.2-0.4,0.2c-1.1,0.1-2,0.5-2.7,1c-0.7,0.6-1.4,1.7-2.1,3.4l-11.2,25.3
			c-0.1,0.2-0.3,0.4-0.6,0.4c-0.3,0-0.5-0.1-0.6-0.4l-6.3-13.1l-7.2,13.1c-0.1,0.2-0.4,0.4-0.6,0.4c-0.3,0-0.5-0.1-0.6-0.4l-11-25.3
			c-0.7-1.6-1.4-2.7-2.2-3.3c-0.8-0.6-1.8-1-3.2-1.2c-0.1,0-0.2-0.1-0.3-0.2s-0.2-0.3-0.2-0.4c0-0.4,0.1-0.6,0.4-0.6
			c1,0,2,0,3.1,0.1c1,0.1,1.9,0.1,2.8,0.1c0.9,0,2,0,3.2-0.1c1.3-0.1,2.4-0.1,3.4-0.1c0.2,0,0.4,0.2,0.4,0.6c0,0.4-0.1,0.6-0.2,0.6
			c-1,0.1-1.8,0.3-2.3,0.8s-0.8,1-0.8,1.7c0,0.4,0.1,0.8,0.4,1.3l9,20.6l5.3-9.8l-4.8-10.1c-0.9-1.8-1.6-3-2.1-3.5
			c-0.6-0.5-1.4-0.8-2.5-1c-0.1,0-0.2-0.1-0.3-0.2c-0.1-0.1-0.1-0.3-0.1-0.4c0-0.4,0.1-0.6,0.3-0.6c1,0,1.9,0,2.7,0.1
			c0.8,0.1,1.6,0.1,2.5,0.1c0.9,0,1.8,0,2.8-0.1c1-0.1,2-0.1,3-0.1c0.2,0,0.4,0.2,0.4,0.6c0,0.4-0.1,0.6-0.2,0.6
			c-2,0.1-2.9,0.7-2.9,1.7c0,0.4,0.2,1.1,0.7,2.1l3.2,6.5l3.2-5.9c0.4-0.8,0.7-1.5,0.7-2.1c0-1.4-1-2.1-2.9-2.2
			c-0.2,0-0.3-0.2-0.3-0.6c0-0.1,0-0.3,0.1-0.4c0.1-0.1,0.2-0.2,0.3-0.2c0.7,0,1.6,0,2.6,0.1c1,0.1,1.8,0.1,2.4,0.1
			c0.5,0,1.1,0,2-0.1c1.1-0.1,2-0.2,2.8-0.2c0.2,0,0.3,0.2,0.3,0.5c0,0.5-0.2,0.7-0.5,0.7c-1.1,0.1-2.1,0.4-2.8,1
			c-0.7,0.5-1.6,1.7-2.6,3.5l-4.2,7.8l5.7,11.7l8.5-19.6c0.3-0.7,0.4-1.4,0.4-2c0-1.4-1-2.2-2.9-2.3c-0.2,0-0.3-0.2-0.3-0.6
			c0-0.4,0.1-0.6,0.4-0.6c0.7,0,1.6,0,2.6,0.1c0.9,0.1,1.7,0.1,2.3,0.1c0.6,0,1.4,0,2.2-0.1c0.9-0.1,1.7-0.1,2.4-0.1
			C161,716.8,161.1,717,161.1,717.3z"/>
		<path d="M180.8,736.8c0,3.3-1,5.9-3.1,8c-2.1,2.1-4.8,3.1-8.2,3.1s-6.1-1-8.2-3.1c-2.1-2.1-3.1-4.7-3.1-8c0-3.3,1.1-6,3.2-8.1
			c2.1-2.1,4.8-3.2,8.2-3.2c3.4,0,6.1,1.1,8.2,3.2C179.8,730.8,180.8,733.5,180.8,736.8z M177.4,736.8c0-3-0.7-5.5-2.2-7.4
			s-3.4-2.9-5.8-2.9c-2.4,0-4.3,1-5.8,2.9c-1.5,1.9-2.2,4.4-2.2,7.4c0,3,0.7,5.4,2.2,7.3c1.4,1.9,3.4,2.8,5.8,2.8
			c2.4,0,4.3-0.9,5.8-2.8C176.7,742.2,177.4,739.8,177.4,736.8z"/>
		<path d="M211.5,746.9c0,0.3-0.1,0.4-0.2,0.4c-0.7,0-1.5,0-2.5-0.1c-0.9-0.1-1.7-0.1-2.3-0.1c-0.6,0-1.4,0-2.3,0.1
			c-0.9,0.1-1.8,0.1-2.4,0.1c-0.2,0-0.3-0.1-0.3-0.4c0-0.3,0.1-0.4,0.2-0.4c1.2-0.1,2-0.4,2.5-0.7s0.7-0.9,0.7-1.7v-0.2l-0.6-14.9
			l-7.4,18.6c-0.1,0.2-0.2,0.2-0.4,0.2c-0.2,0-0.4-0.1-0.4-0.2l-7-17.9l-1.1,14.2c0,0.2,0,0.3,0,0.5c0,0.7,0.2,1.2,0.7,1.5
			s1.3,0.5,2.5,0.6c0.1,0,0.2,0.2,0.2,0.4c0,0.3-0.1,0.4-0.3,0.4c-0.5,0-1.3,0-2.2-0.1c-0.9-0.1-1.5-0.1-2-0.1c-0.5,0-1.2,0-2.1,0.1
			c-0.9,0.1-1.5,0.1-2,0.1c-0.1,0-0.2-0.1-0.2-0.4c0-0.3,0.1-0.4,0.3-0.4c1.3-0.2,2.2-0.4,2.7-0.7c0.5-0.3,0.8-1,0.9-1.9l1.6-14.5
			c0-0.2,0-0.3,0-0.5c0-0.7-0.2-1.2-0.7-1.4c-0.5-0.3-1.3-0.5-2.6-0.7c-0.1,0-0.2-0.1-0.2-0.4c0-0.1,0-0.2,0.1-0.3s0.1-0.1,0.2-0.1
			c0.4,0,0.9,0,1.6,0.1c0.6,0.1,1,0.1,1.3,0.1c0.4,0,0.9,0,1.5-0.1c0.7-0.1,1.2-0.1,1.6-0.1l6.6,17.1l6.8-17.1c0.4,0,0.9,0,1.6,0.1
			c0.6,0.1,1.1,0.1,1.4,0.1c0.4,0,0.9,0,1.6-0.1c0.6-0.1,1.2-0.1,1.6-0.1c0.2,0,0.3,0.1,0.3,0.4c0,0.3-0.1,0.4-0.2,0.4
			c-1.2,0.1-2,0.4-2.5,0.7s-0.7,0.9-0.7,1.7v0.3l0.7,14.5c0,0.7,0.1,1.2,0.3,1.5c0.2,0.3,0.5,0.5,1,0.7c0.5,0.2,1.1,0.3,2,0.4
			C211.4,746.5,211.5,746.7,211.5,746.9z"/>
		<path d="M231.8,742.3c-0.8,1.8-1.5,3.5-2,5.1c-3.9-0.1-6.6-0.2-8.3-0.2c-1.6,0-4.4,0.1-8.3,0.2c-0.2,0-0.2-0.1-0.2-0.4
			c0-0.3,0.1-0.4,0.2-0.4c0.9-0.1,1.5-0.2,2-0.4c0.5-0.2,0.8-0.4,0.9-0.7c0.2-0.3,0.3-0.8,0.3-1.5v-14.5c0-0.7-0.1-1.2-0.3-1.5
			c-0.2-0.3-0.5-0.5-0.9-0.7c-0.5-0.2-1.1-0.3-2-0.4c-0.2,0-0.2-0.1-0.2-0.4c0-0.3,0.1-0.4,0.2-0.4c2.6,0.1,5.2,0.2,7.9,0.2
			c2.7,0,5.4-0.1,8-0.2c0.2,1.6,0.6,3.2,1,4.7c0,0.2-0.2,0.3-0.5,0.3c-0.2,0-0.3-0.1-0.3-0.2c-0.8-2.4-2.4-3.6-4.9-3.6h-3.1
			c-1.2,0-1.8,0.6-1.8,1.8v6.9h3.9c1,0,1.7-0.2,2.1-0.7c0.4-0.5,0.6-1.3,0.8-2.5c0-0.2,0.1-0.2,0.4-0.2c0.3,0,0.4,0.1,0.4,0.2
			c0,0.5,0,1.2-0.1,1.9c-0.1,0.8-0.1,1.4-0.1,1.8c0,0.5,0,1.1,0.1,1.8c0.1,0.8,0.1,1.5,0.1,2c0,0.2-0.1,0.2-0.4,0.2
			c-0.3,0-0.4-0.1-0.4-0.2c-0.2-1.3-0.4-2.1-0.8-2.6c-0.4-0.5-1.1-0.8-2.1-0.8h-3.9v7.6c0,1.2,0.6,1.8,1.8,1.8h3.4
			c1.2,0,2.4-0.4,3.6-1.2c1.2-0.8,2.1-1.8,2.6-3c0-0.1,0.1-0.1,0.3-0.1c0.1,0,0.3,0,0.4,0.1C231.8,742.1,231.8,742.2,231.8,742.3z"
			/>
		<path d="M258.6,726.4c0,0.3-0.1,0.4-0.2,0.4c-1.3,0.1-2.2,0.4-2.6,0.7c-0.5,0.3-0.7,1-0.7,1.9l-0.3,18.2c0,0.2-0.1,0.3-0.4,0.3
			c-0.1,0-0.3-0.1-0.5-0.2l-15.9-17.9l-0.2,14.2c0,0.1,0,0.2,0,0.2c0,0.8,0.2,1.3,0.7,1.7c0.5,0.3,1.4,0.6,2.7,0.7
			c0.2,0,0.2,0.2,0.2,0.4c0,0.3-0.1,0.4-0.2,0.4c-0.5,0-1.3,0-2.2-0.1c-0.9-0.1-1.5-0.1-2-0.1c-0.5,0-1.2,0-2.1,0.1
			c-0.8,0.1-1.5,0.1-2,0.1c-0.2,0-0.2-0.1-0.2-0.4c0-0.3,0.1-0.4,0.3-0.4c1.3-0.2,2.1-0.4,2.6-0.7c0.5-0.3,0.7-1,0.8-1.9l0.5-14.5
			v-0.1c0-0.8-0.2-1.4-0.7-1.7c-0.5-0.3-1.4-0.6-2.7-0.7c-0.1,0-0.2-0.1-0.2-0.4c0-0.3,0.1-0.4,0.2-0.4c0.4,0,0.9,0,1.5,0.1
			c0.6,0.1,1,0.1,1.3,0.1c0.4,0,0.8,0,1.3-0.1c0.5-0.1,1-0.1,1.3-0.1l14.8,16.6v-13.1c0-0.9-0.2-1.5-0.7-1.8
			c-0.5-0.4-1.4-0.6-2.8-0.8c-0.2,0-0.2-0.2-0.2-0.4c0-0.3,0.1-0.4,0.2-0.4c0.6,0,1.3,0,2.2,0.1c0.9,0.1,1.5,0.1,2,0.1
			c0.5,0,1.2,0,2.1-0.1c0.8-0.1,1.5-0.1,2-0.1C258.5,725.9,258.6,726.1,258.6,726.4z"/>
		<path d="M189.9,765.9c0,0.1,0,0.2-0.1,0.3c-0.1,0.1-0.1,0.1-0.2,0.1c-0.6,0.1-1.1,0.2-1.5,0.6c-0.4,0.3-0.8,0.9-1.2,1.9l-6.1,13.8
			c0,0.1-0.2,0.2-0.3,0.2c-0.1,0-0.3-0.1-0.3-0.2l-3.4-7.2l-3.9,7.2c-0.1,0.1-0.2,0.2-0.3,0.2c-0.2,0-0.3-0.1-0.3-0.2l-6-13.8
			c-0.4-0.9-0.8-1.5-1.2-1.8s-1-0.6-1.7-0.6c-0.1,0-0.1,0-0.2-0.1c-0.1-0.1-0.1-0.1-0.1-0.2c0-0.2,0.1-0.3,0.2-0.3
			c0.5,0,1.1,0,1.7,0.1c0.5,0,1.1,0.1,1.5,0.1c0.5,0,1.1,0,1.7-0.1c0.7,0,1.3-0.1,1.8-0.1c0.1,0,0.2,0.1,0.2,0.3s0,0.3-0.1,0.3
			c-0.5,0-1,0.2-1.3,0.4c-0.3,0.2-0.5,0.5-0.5,0.9c0,0.2,0.1,0.4,0.2,0.7l4.9,11.2l2.9-5.4l-2.6-5.5c-0.5-1-0.9-1.6-1.2-1.9
			c-0.3-0.3-0.8-0.5-1.4-0.5c-0.1,0-0.1,0-0.2-0.1c-0.1-0.1-0.1-0.1-0.1-0.2c0-0.2,0.1-0.3,0.2-0.3c0.5,0,1,0,1.5,0.1
			c0.4,0,0.9,0.1,1.4,0.1c0.5,0,1,0,1.5-0.1c0.6,0,1.1-0.1,1.6-0.1c0.1,0,0.2,0.1,0.2,0.3s0,0.3-0.1,0.3c-1.1,0.1-1.6,0.4-1.6,0.9
			c0,0.2,0.1,0.6,0.4,1.1l1.7,3.5l1.7-3.2c0.2-0.5,0.4-0.8,0.4-1.2c0-0.7-0.5-1.1-1.6-1.2c-0.1,0-0.1-0.1-0.1-0.3
			c0-0.1,0-0.2,0.1-0.2c0-0.1,0.1-0.1,0.1-0.1c0.4,0,0.9,0,1.4,0.1c0.5,0,1,0.1,1.3,0.1c0.2,0,0.6,0,1.1-0.1
			c0.6-0.1,1.1-0.1,1.5-0.1c0.1,0,0.1,0.1,0.1,0.3c0,0.3-0.1,0.4-0.3,0.4c-0.6,0.1-1.1,0.2-1.5,0.5c-0.4,0.3-0.9,0.9-1.4,1.9
			l-2.3,4.3l3.1,6.4l4.6-10.7c0.2-0.4,0.2-0.8,0.2-1.1c0-0.8-0.5-1.2-1.6-1.3c-0.1,0-0.1-0.1-0.1-0.3s0.1-0.3,0.2-0.3
			c0.4,0,0.9,0,1.4,0.1c0.5,0,0.9,0.1,1.2,0.1c0.4,0,0.8,0,1.2-0.1c0.5,0,0.9-0.1,1.3-0.1C189.9,765.6,189.9,765.7,189.9,765.9z"/>
		<path d="M204,782c0,0.2,0,0.2-0.1,0.2c-0.4,0-0.8,0-1.4,0c-0.5,0-0.9-0.1-1.3-0.1s-0.7,0-1.2,0.1c-0.5,0-0.9,0-1.3,0
			c-0.1,0-0.1-0.1-0.1-0.2c0-0.1,0-0.2,0.1-0.2c0.5-0.1,0.8-0.1,1-0.2c0.2-0.1,0.4-0.2,0.4-0.4c0.1-0.2,0.1-0.4,0.1-0.8v-3.7H194
			v3.7c0,0.4,0,0.6,0.1,0.8c0.1,0.2,0.2,0.3,0.4,0.4c0.2,0.1,0.6,0.2,1.1,0.2c0.1,0,0.1,0.1,0.1,0.2c0,0.2,0,0.2-0.1,0.2
			c-0.4,0-0.8,0-1.3,0c-0.4,0-0.8-0.1-1.2-0.1s-0.8,0-1.3,0.1c-0.5,0-1,0-1.3,0c-0.1,0-0.1-0.1-0.1-0.2c0-0.1,0-0.2,0.1-0.2
			c0.7-0.1,1.1-0.2,1.4-0.4c0.2-0.2,0.4-0.5,0.4-1v-7.9c0-0.4,0-0.7-0.1-0.8s-0.3-0.3-0.5-0.4c-0.2-0.1-0.6-0.2-1.1-0.2
			c-0.1,0-0.1-0.1-0.1-0.2s0-0.2,0.1-0.2c0.4,0,0.8,0,1.3,0.1c0.5,0,0.9,0.1,1.3,0.1s0.7,0,1.2-0.1c0.5,0,0.9-0.1,1.3-0.1
			c0.1,0,0.1,0.1,0.1,0.2s0,0.2-0.1,0.2c-0.4,0.1-0.8,0.1-1,0.2c-0.2,0.1-0.4,0.2-0.5,0.3c-0.1,0.1-0.1,0.4-0.1,0.9v3.6h6.4v-3.6
			c0-0.4,0-0.6-0.1-0.8c-0.1-0.2-0.2-0.3-0.4-0.4c-0.2-0.1-0.6-0.2-1.1-0.2c-0.1,0-0.1-0.1-0.1-0.2s0-0.2,0.1-0.2
			c0.4,0,0.8,0,1.3,0.1c0.4,0,0.8,0.1,1.2,0.1s0.8,0,1.3-0.1c0.5,0,1-0.1,1.4-0.1c0.1,0,0.1,0.1,0.1,0.2s0,0.2-0.1,0.2
			c-0.5,0.1-0.8,0.1-1.1,0.2c-0.2,0.1-0.4,0.2-0.5,0.4c-0.1,0.2-0.1,0.4-0.1,0.8v7.9c0,0.5,0.1,0.9,0.4,1c0.2,0.2,0.7,0.3,1.4,0.4
			C204,781.8,204,781.9,204,782z"/>
		<path d="M217.6,776.5c0,1.8-0.6,3.2-1.7,4.4c-1.1,1.1-2.6,1.7-4.5,1.7c-1.8,0-3.3-0.6-4.5-1.7c-1.1-1.1-1.7-2.6-1.7-4.4
			c0-1.8,0.6-3.3,1.7-4.4c1.1-1.2,2.6-1.7,4.5-1.7c1.8,0,3.3,0.6,4.5,1.7C217.1,773.2,217.6,774.7,217.6,776.5z M215.8,776.5
			c0-1.7-0.4-3-1.2-4c-0.8-1-1.8-1.6-3.1-1.6c-1.3,0-2.4,0.5-3.1,1.6c-0.8,1-1.2,2.4-1.2,4c0,1.6,0.4,3,1.2,4c0.8,1,1.8,1.5,3.2,1.5
			c1.3,0,2.4-0.5,3.2-1.5C215.4,779.5,215.8,778.1,215.8,776.5z"/>
	</g>
	<g>
		<path d="M227.3,876.4c3.9,0.2,7.7,0.4,11.5,0.5c3.8,0.1,7.7,0.4,11.5,0.8c-3.9,0.2-7.7,0.4-11.5,0.6c-3.8,0.2-7.7,0.3-11.5,0.3
			c-1.9,0.2-3.8,0.4-5.8,0.4c-1.9,0-3.8,0.1-5.8,0.1h-9.4c-0.2,0-0.4,0.1-0.6,0.2c-0.1,0.1-0.2,0.1-0.3,0.2
			c-0.9,0.6-1.7,1.2-2.6,1.5c-0.9,0.4-1.7,0.6-2.6,0.6c-0.8,0-1.7-0.3-2.5-0.8c-0.8-0.5-1.5-1.5-2.2-3c-0.6,0.2-1.2,0.5-1.6,0.9
			c-0.5,0.4-0.9,0.7-1.3,0.9c-0.9,0.6-1.7,1.2-2.6,1.5c-0.9,0.4-1.7,0.6-2.6,0.6c-0.9,0-1.7-0.3-2.5-0.8c-0.8-0.5-1.5-1.5-2.2-3
			c-0.6,0.2-1.2,0.5-1.7,0.9c-0.5,0.4-0.9,0.7-1.3,0.9c-0.9,0.6-1.7,1.2-2.6,1.5c-0.9,0.4-1.7,0.6-2.6,0.6c-1.2,0-2.5-0.8-3.8-2.5
			h-4.3c-1.9,0-3.8,0-5.8-0.1c-1.9,0-3.8-0.2-5.8-0.4c-3.9,0-7.7-0.1-11.5-0.3c-3.8-0.2-7.7-0.4-11.5-0.6c3.9-0.4,7.7-0.7,11.5-0.8
			c3.8-0.1,7.7-0.3,11.5-0.5h11.5l11.5-0.4c0.2,0,0.5-0.1,0.7-0.3c0.2-0.2,0.6-0.4,1-0.6c0.9-0.4,1.6-0.8,2.4-1.1
			c0.7-0.3,1.5-0.5,2.3-0.5c0.9,0,1.7,0.3,2.6,0.8c0.9,0.5,1.7,1.5,2.5,3c0.4-0.4,0.9-0.8,1.4-1.1c0.5-0.3,1-0.7,1.7-1.1
			c0.8-0.4,1.6-0.8,2.3-1.1c0.7-0.3,1.5-0.5,2.4-0.5c0.9,0,1.7,0.3,2.6,0.8c0.8,0.5,1.7,1.5,2.6,3c0.4-0.4,0.9-0.8,1.4-1.1
			c0.5-0.3,1-0.7,1.6-1.1c0.9-0.4,1.6-0.8,2.4-1.1c0.7-0.3,1.5-0.5,2.3-0.5c0.9,0,1.6,0.2,2.3,0.7c0.7,0.5,1.3,1.2,2,2.3h1.3H227.3z
			 M182.9,877.7c0.9,0.5,1.8,0.7,2.7,0.7c0.6,0,1.3-0.1,2-0.3c0.2,0,0.5-0.1,0.9-0.3c0.3-0.2,0.6-0.4,0.9-0.6c-0.7-0.7-1.5-1-2.4-1
			c-0.7,0-1.5,0.2-2.3,0.6c-0.2,0-0.5,0.1-0.8,0.3C183.4,877.3,183.1,877.5,182.9,877.7z M195.7,877.7c1,0.5,1.9,0.7,2.7,0.7
			c0.6,0,1.2-0.1,2-0.3c0.2,0,0.5-0.1,0.9-0.3c0.4-0.2,0.6-0.4,0.9-0.6c-0.7-0.7-1.5-1-2.4-1c-0.7,0-1.5,0.2-2.3,0.6
			c-0.2,0-0.5,0.1-0.9,0.3C196.2,877.3,195.9,877.5,195.7,877.7z"/>
	</g>
	<path d="M191.2,589.3h11.7c0,0,11.9,19.8,11.1,30.9c-0.8,11.1-20.5,13.2-20.5,13.2v27.4c0,0,12.7,1.3,12.7,3.7
		c0,3.1-16.6,3.5-16.6,3.5s-13.5-0.4-13.5-3.5c0-2.4,12.7-3.7,12.7-3.7v-27.4c0,0-19.7-2.1-20.5-13.2c-0.8-11.1,11.1-30.9,11.1-30.9
		H191.2z"/>
	<path class="st2" d="M172.9,618.3c0,0,0.1,2.2,0.1,2.2c0.7,6.3,18.2,7.2,18.2,7.2s17.2-0.6,18.2-7.2c0,0-0.1-2.2-0.1-2.2
		c0,0-11.2,2.2-18.2,2.2C184.1,620.5,172.9,618.3,172.9,618.3z"/>
	<g>
		<path class="st2" d="M191.2,604.7c0.3-1,0.7-1.8,1.1-2.5c0.4-0.7,1-1.2,1.7-1.6c0.7-0.4,1.6-0.6,2.5-0.6c1.6,0,2.9,0.5,4,1.4
			c1.1,1,1.6,2.1,1.6,3.5c0,1.2-0.3,2.4-0.8,3.4c-0.5,1-1.4,2.3-2.7,3.7c-1.7,1.9-2.8,3.2-3.3,3.9c-0.5,0.7-1.1,1.6-1.8,2.8
			c-0.7,1.1-1.1,2-1.3,2.5c-0.2,0.4-0.3,0.7-0.5,0.8c-0.1,0.1-0.3,0.1-0.5,0.1c-0.2,0-0.3-0.1-0.5-0.2c-0.1-0.1-0.3-0.4-0.4-0.8
			c-0.2-0.5-0.6-1.3-1.3-2.5c-0.7-1.1-1.3-2.1-1.8-2.8s-1.7-2-3.3-3.9c-1.2-1.4-2.1-2.5-2.6-3.6s-0.8-2.2-0.8-3.4
			c0-1.5,0.5-2.7,1.6-3.7c1.1-0.9,2.4-1.4,4-1.4c1,0,1.8,0.2,2.5,0.6c0.7,0.4,1.3,0.9,1.7,1.6C190.6,602.9,190.9,603.7,191.2,604.7z
			"/>
	</g>
	<g>
		<path d="M227.3,692c3.9,0.2,7.7,0.4,11.5,0.5c3.8,0.1,7.7,0.4,11.5,0.8c-3.9,0.2-7.7,0.4-11.5,0.6c-3.8,0.2-7.7,0.3-11.5,0.3
			c-1.9,0.2-3.8,0.4-5.8,0.4c-1.9,0-3.8,0.1-5.8,0.1h-9.4c-0.2,0-0.4,0.1-0.6,0.2c-0.1,0.1-0.2,0.1-0.3,0.2
			c-0.9,0.6-1.7,1.2-2.6,1.5c-0.9,0.4-1.7,0.6-2.6,0.6c-0.8,0-1.7-0.3-2.5-0.8c-0.8-0.5-1.5-1.5-2.2-3c-0.6,0.2-1.2,0.5-1.6,0.9
			s-0.9,0.7-1.3,0.9c-0.9,0.6-1.7,1.2-2.6,1.5c-0.9,0.4-1.7,0.6-2.6,0.6c-0.9,0-1.7-0.3-2.5-0.8c-0.8-0.5-1.5-1.5-2.2-3
			c-0.6,0.2-1.2,0.5-1.7,0.9c-0.5,0.4-0.9,0.7-1.3,0.9c-0.9,0.6-1.7,1.2-2.6,1.5c-0.9,0.4-1.7,0.6-2.6,0.6c-1.2,0-2.5-0.8-3.8-2.5
			h-4.3c-1.9,0-3.8,0-5.8-0.1c-1.9,0-3.8-0.2-5.8-0.4c-3.9,0-7.7-0.1-11.5-0.3c-3.8-0.2-7.7-0.4-11.5-0.6c3.9-0.4,7.7-0.7,11.5-0.8
			c3.8-0.1,7.7-0.3,11.5-0.5h11.5l11.5-0.4c0.2,0,0.5-0.1,0.7-0.3c0.2-0.2,0.6-0.4,1-0.6c0.9-0.4,1.6-0.8,2.4-1.1
			c0.7-0.3,1.5-0.5,2.3-0.5c0.9,0,1.7,0.3,2.6,0.8c0.9,0.5,1.7,1.5,2.5,3c0.4-0.4,0.9-0.8,1.4-1.1c0.5-0.3,1-0.7,1.7-1.1
			c0.8-0.4,1.6-0.8,2.3-1.1c0.7-0.3,1.5-0.5,2.4-0.5c0.9,0,1.7,0.3,2.6,0.8c0.8,0.5,1.7,1.5,2.6,3c0.4-0.4,0.9-0.8,1.4-1.1
			c0.5-0.3,1-0.7,1.6-1.1c0.9-0.4,1.6-0.8,2.4-1.1c0.7-0.3,1.5-0.5,2.3-0.5c0.9,0,1.6,0.2,2.3,0.7c0.7,0.5,1.3,1.2,2,2.3h1.3H227.3z
			 M182.9,693.3c0.9,0.5,1.8,0.7,2.7,0.7c0.6,0,1.3-0.1,2-0.3c0.2,0,0.5-0.1,0.9-0.3c0.3-0.2,0.6-0.4,0.9-0.6c-0.7-0.7-1.5-1-2.4-1
			c-0.7,0-1.5,0.2-2.3,0.6c-0.2,0-0.5,0.1-0.8,0.3C183.4,692.8,183.1,693,182.9,693.3z M195.7,693.3c1,0.5,1.9,0.7,2.7,0.7
			c0.6,0,1.2-0.1,2-0.3c0.2,0,0.5-0.1,0.9-0.3c0.4-0.2,0.6-0.4,0.9-0.6c-0.7-0.7-1.5-1-2.4-1c-0.7,0-1.5,0.2-2.3,0.6
			c-0.2,0-0.5,0.1-0.9,0.3C196.2,692.8,195.9,693,195.7,693.3z"/>
	</g>
</g>
<path d="M295.2,166.5c-20-0.1-43.7-0.2-64.1-0.4v0h-61c-20.5,0.2-40.9,0.3-61.1,0.4c-20.2,0.1-40.5,0.3-61.1,0.7
	c20.5,0.2,40.9,0.3,61.1,0.5c20.2,0.2,40.5,0.2,61.1,0.2c10.2,0.2,20.4,0.3,30.5,0.3c2.1,0,4.3,0,6.5,0c8.7,0,16.6,0.2,25.6,0
	c20.5,0,42.3-0.5,62.5-0.6c20.2-0.2,40.5-0.3,61.1-0.5C335.7,166.9,315.4,166.6,295.2,166.5z"/>
<g>
</g>
<g>
</g>
<g>
</g>
<g>
</g>
<g>
</g>
<g>
</g>
</svg>
