<?xml version="1.0" encoding="utf-8"?>
<!-- Generator: Adobe Illustrator 19.1.0, SVG Export Plug-In . SVG Version: 6.00 Build 0)  -->
<svg version="1.1" id="Layer_1" xmlns="http://www.w3.org/2000/svg" xmlns:xlink="http://www.w3.org/1999/xlink" x="0px" y="0px"
	 viewBox="0 0 454.8 117.3" style="enable-background:new 0 0 454.8 117.3;" xml:space="preserve">
<path d="M47.1,7c-0.5-0.9-1.5-1.5-2.5-1.5H31.3H18.1c-1.1,0-2,0.6-2.5,1.5C12.4,12.6,3.1,32.9,4,45c0.8,11.5,15,15.4,21.3,16.5
	c1.4,0.2,2.7,1.5,3.3,2.8c0,0,1.4,1.4,1.4,14.3c0,11.2-0.4,15.8-0.4,15.8c0,1.5-2.4,2.5-3.8,2.7c-4.6,0.6-13.8,2.1-13.8,4.4
	c0,4,17.3,4.5,17.3,4.5s21.2,0,21.2-4.5c0-2.3-9.2-3.8-13.8-4.4C35.4,97,33,96.1,33,94.4c0,0-0.4-5.6-0.4-15.8
	c0-11.1,1.7-14.2,1.7-14.2c0.3-1.5,1.8-2.6,3.2-2.8c6.3-1.1,20.8-5.1,21.6-16.5C60,32.9,50.3,12.6,47.1,7z M21.9,14.9
	c1-1,4.3,0.4,6.1,1.2c0.3-2.4,2-5.9,3.4-5.9c1.6,0,3.1,3.5,3.4,5.9c1.8-0.8,5.5-2.1,6.6-1.2c1.2,1-2.9,6.2-6.2,8
	c-0.3-0.5-0.7-0.9-1.2-1.3c-2-1.5-4.8-1.1-6.2,0.9c-0.1,0.1-0.2,0.3-0.3,0.4C24.3,21.2,20.7,16.1,21.9,14.9z M35.9,28.7
	c0,2.5-1.9,4.5-4.4,4.5c-2.5,0-4.5-1.9-4.5-4.4c0-2.5,1.9-4.5,4.4-4.5C33.8,24.3,35.8,26.3,35.9,28.7z M16.2,29.1
	c0-2.5,1.9-4.5,4.4-4.5c2.5,0,4.5,1.9,4.5,4.4s-1.9,4.5-4.4,4.5C18.3,33.5,16.2,31.6,16.2,29.1z M21.9,39c0-2.5,1.9-4.5,4.4-4.5
	c2.5,0,4.5,1.9,4.5,4.4c0,2.5-1.9,4.5-4.4,4.5C24,43.4,22,41.4,21.9,39z M32.1,53.3c-2.5,0-4.5-1.9-4.5-4.4c0-2.5,1.9-4.5,4.4-4.5
	c2.5,0,4.5,1.9,4.5,4.4C36.5,51.2,34.5,53.2,32.1,53.3z M37.1,43.1c-2.5,0-4.5-1.9-4.5-4.4c0-2.5,1.9-4.5,4.4-4.5
	c2.5,0,4.5,1.9,4.5,4.4C41.5,41,39.5,43.1,37.1,43.1z M42.1,33c-2.5,0-4.5-1.9-4.5-4.4c0-2.5,1.9-4.5,4.4-4.5c2.5,0,4.5,1.9,4.5,4.4
	C46.6,31,44.6,33,42.1,33z M177.8,72.3c0,0.1-0.1,0.2-0.3,0.2c-0.1,0-0.2,0-0.2-0.1c-0.2-0.7-0.6-1.2-1.1-1.6
	c-0.5-0.4-1.1-0.5-1.9-0.5h-1.6c-0.7,0-1.1,0.4-1.1,1.1v4h2.1c0.6,0,1-0.1,1.2-0.4c0.2-0.3,0.4-0.8,0.5-1.5c0-0.1,0.1-0.1,0.2-0.1
	c0.2,0,0.3,0,0.3,0.1c0,0.3,0,0.7-0.1,1.1c0,0.4-0.1,0.8-0.1,1.1c0,0.3,0,0.6,0.1,1.1c0,0.5,0.1,0.9,0.1,1.2c0,0.1-0.1,0.1-0.3,0.1
	c-0.2,0-0.2,0-0.2-0.1c-0.1-0.7-0.3-1.2-0.5-1.5s-0.6-0.4-1.2-0.4h-2.1v4.2c0,0.4,0.1,0.7,0.2,0.9c0.1,0.2,0.3,0.3,0.6,0.4
	c0.3,0.1,0.6,0.2,1.1,0.2c0.1,0,0.2,0.1,0.2,0.2c0,0.2,0,0.3-0.1,0.3c-0.4,0-0.9,0-1.4-0.1c-0.5,0-1-0.1-1.4-0.1
	c-0.4,0-0.8,0-1.3,0.1c-0.6,0-1,0.1-1.4,0.1c-0.1,0-0.1-0.1-0.1-0.3c0-0.1,0-0.2,0.1-0.2c0.5-0.1,0.9-0.1,1.1-0.2
	c0.3-0.1,0.4-0.2,0.6-0.4c0.1-0.2,0.2-0.5,0.2-0.9v-8.5c0-0.4,0-0.7-0.1-0.9c-0.1-0.2-0.3-0.3-0.5-0.4c-0.3-0.1-0.7-0.2-1.2-0.2
	c-0.1,0-0.1-0.1-0.1-0.2s0-0.2,0.1-0.2c1.5,0.1,3.1,0.1,4.6,0.1c1.5,0,3,0,4.5-0.1C177.4,70.6,177.6,71.5,177.8,72.3z M199.4,75.9
	c0,1.9-0.6,3.5-1.8,4.7s-2.8,1.8-4.8,1.8c-2,0-3.6-0.6-4.8-1.8c-1.2-1.2-1.8-2.8-1.8-4.7c0-1.9,0.6-3.5,1.8-4.7s2.8-1.9,4.8-1.9
	c2,0,3.6,0.6,4.8,1.9S199.4,74,199.4,75.9z M197.4,75.9c0-1.8-0.4-3.2-1.3-4.3s-2-1.7-3.4-1.7c-1.4,0-2.5,0.6-3.4,1.7
	s-1.3,2.6-1.3,4.3c0,1.8,0.4,3.2,1.3,4.3c0.8,1.1,2,1.6,3.4,1.6c1.4,0,2.5-0.5,3.4-1.6S197.4,77.7,197.4,75.9z M220.5,81.9
	c0,0.2,0,0.3-0.1,0.3c-0.2,0-0.6,0-1.1-0.1c-0.4,0-0.6,0-0.7,0c-0.2,0-0.4,0-0.8,0.1s-0.6,0.1-0.8,0.1l-2.7-4.4
	c-0.4-0.6-0.7-1-0.9-1.2c-0.2-0.2-0.7-0.3-1.4-0.3v3.9c0,0.4,0.1,0.7,0.2,0.9c0.1,0.2,0.3,0.3,0.6,0.4c0.3,0.1,0.6,0.2,1.1,0.2
	c0.1,0,0.2,0.1,0.2,0.2c0,0.2,0,0.3-0.1,0.3c-0.4,0-0.9,0-1.4-0.1c-0.5,0-1-0.1-1.4-0.1s-0.8,0-1.3,0.1c-0.6,0-1,0.1-1.4,0.1
	c-0.1,0-0.1-0.1-0.1-0.3c0-0.1,0-0.2,0.1-0.2c0.5-0.1,0.9-0.1,1.1-0.2s0.4-0.2,0.6-0.4c0.1-0.2,0.2-0.5,0.2-0.9v-8.5
	c0-0.4,0-0.7-0.1-0.9c-0.1-0.2-0.3-0.3-0.5-0.4c-0.3-0.1-0.7-0.2-1.2-0.2c-0.1,0-0.1-0.1-0.1-0.2s0-0.2,0.1-0.2c0.4,0,0.9,0,1.4,0.1
	c0.5,0,1,0.1,1.3,0.1s0.8,0,1.4-0.1c0.6,0,1-0.1,1.4-0.1c1.3,0,2.4,0.3,3.1,0.8c0.7,0.6,1.1,1.3,1.1,2.4c0,0.6-0.2,1.2-0.7,1.8
	c-0.5,0.5-1.1,1-2,1.3l2.8,4.5c0.2,0.4,0.5,0.7,0.9,0.9c0.4,0.2,0.9,0.3,1.5,0.4C220.4,81.6,220.5,81.7,220.5,81.9z M215.9,72.8
	c0-1.8-0.8-2.6-2.3-2.6c-0.5,0-0.9,0-1.1,0.1c-0.3,0.1-0.4,0.2-0.5,0.4s-0.1,0.5-0.1,0.9v4c0.3,0,0.8,0.1,1.3,0.1
	c1,0,1.7-0.2,2.1-0.7C215.7,74.6,215.9,73.8,215.9,72.8z M251,81.9c0,0.2,0,0.3-0.1,0.3c-0.4,0-0.9,0-1.4-0.1
	c-0.5,0-0.8-0.1-1.2-0.1c-0.4,0-0.8,0-1.4,0.1c-0.6,0-1.1,0.1-1.5,0.1c-0.1,0-0.1-0.1-0.1-0.2s0-0.2,0.1-0.2c0.5,0,0.9-0.1,1.2-0.2
	c0.2-0.1,0.4-0.3,0.4-0.5c0-0.2-0.1-0.4-0.2-0.8l-1-3H242l-1,2.8c-0.1,0.4-0.2,0.7-0.2,0.9c0,0.5,0.5,0.8,1.5,0.9
	c0.1,0,0.1,0.1,0.1,0.2s0,0.2-0.1,0.2c-0.4,0-0.8,0-1.2-0.1c-0.4,0-0.8-0.1-1.1-0.1c-0.3,0-0.6,0-1,0.1c-0.4,0-0.8,0.1-1,0.1
	c-0.1,0-0.1-0.1-0.1-0.2c0-0.2,0.1-0.3,0.2-0.3c0.5,0,0.9-0.2,1.2-0.4c0.3-0.2,0.6-0.7,0.9-1.4l4.2-10.3c0-0.1,0.1-0.1,0.3-0.1
	c0.1,0,0.2,0,0.3,0.1l3.7,10.3c0.2,0.6,0.5,1,0.9,1.3c0.4,0.3,0.8,0.5,1.4,0.5C250.9,81.6,251,81.7,251,81.9z M245.5,76.5l-1.6-4.6
	l-1.7,4.6H245.5z M281.7,78.8c-0.2,1-0.4,2-0.6,3.1c-0.3,0-1,0.1-1.9,0.2c-1.2,0.2-2,0.3-2.6,0.3c-1.4,0-2.6-0.3-3.6-0.8
	s-1.8-1.3-2.4-2.3c-0.6-1-0.9-2.1-0.9-3.4c0-1.2,0.3-2.3,0.9-3.4c0.6-1,1.4-1.8,2.5-2.4s2.3-0.9,3.6-0.9c0.6,0,1.3,0.1,2.3,0.2
	c0.7,0.1,1.3,0.1,1.6,0.1c0.1,0.8,0.2,1.9,0.4,3.1c0,0.1-0.1,0.1-0.3,0.1c-0.1,0-0.2,0-0.2-0.1c-0.2-0.8-0.7-1.5-1.4-2
	c-0.7-0.5-1.5-0.8-2.5-0.8c-1.4,0-2.6,0.6-3.6,1.7s-1.4,2.6-1.4,4.3c0,1.6,0.5,3,1.4,4.2c0.9,1.1,2.1,1.7,3.5,1.7c2.1,0,3.7-1,4.6-3
	c0-0.1,0.1-0.1,0.2-0.1C281.6,78.6,281.7,78.7,281.7,78.8z M302.6,81.9c0,0.2,0,0.3-0.1,0.3c-0.4,0-0.9,0-1.4-0.1
	c-0.5,0-0.8-0.1-1.2-0.1c-0.4,0-0.8,0-1.4,0.1c-0.6,0-1.1,0.1-1.5,0.1c-0.1,0-0.1-0.1-0.1-0.2s0-0.2,0.1-0.2c0.5,0,0.9-0.1,1.2-0.2
	c0.2-0.1,0.4-0.3,0.4-0.5c0-0.2-0.1-0.4-0.2-0.8l-1-3h-3.7l-1,2.8c-0.1,0.4-0.2,0.7-0.2,0.9c0,0.5,0.5,0.8,1.5,0.9
	c0.1,0,0.1,0.1,0.1,0.2s0,0.2-0.1,0.2c-0.4,0-0.8,0-1.2-0.1c-0.4,0-0.8-0.1-1.1-0.1c-0.3,0-0.6,0-1,0.1c-0.4,0-0.8,0.1-1,0.1
	c-0.1,0-0.1-0.1-0.1-0.2c0-0.2,0.1-0.3,0.2-0.3c0.5,0,0.9-0.2,1.2-0.4c0.3-0.2,0.6-0.7,0.9-1.4l4.2-10.3c0-0.1,0.1-0.1,0.3-0.1
	c0.1,0,0.2,0,0.3,0.1l3.7,10.3c0.2,0.6,0.5,1,0.9,1.3c0.4,0.3,0.8,0.5,1.4,0.5C302.5,81.6,302.6,81.7,302.6,81.9z M297.1,76.5
	l-1.6-4.6l-1.7,4.6H297.1z M322.7,69.8c0,0.2,0,0.2-0.1,0.2c-0.8,0.1-1.3,0.2-1.5,0.4c-0.3,0.2-0.4,0.6-0.4,1.1v5.6
	c0,1.6-0.4,2.9-1.2,3.8c-0.8,0.9-1.9,1.4-3.3,1.4c-1.6,0-2.9-0.4-3.8-1.3c-0.9-0.9-1.3-2-1.3-3.5v-5.9c0-0.4,0-0.7-0.1-0.9
	c-0.1-0.2-0.3-0.3-0.5-0.4c-0.3-0.1-0.7-0.2-1.2-0.2c-0.1,0-0.1-0.1-0.1-0.2s0-0.2,0.1-0.2c0.4,0,0.9,0,1.4,0.1c0.5,0,1,0.1,1.3,0.1
	c0.4,0,0.8,0,1.3-0.1c0.6,0,1-0.1,1.4-0.1c0.1,0,0.1,0.1,0.1,0.2s0,0.2-0.1,0.2c-0.5,0.1-0.9,0.1-1.2,0.2c-0.3,0.1-0.4,0.2-0.6,0.4
	c-0.1,0.2-0.2,0.5-0.2,0.9v5.7c0,1.5,0.3,2.6,0.8,3.3s1.5,1,2.7,1c2.4,0,3.6-1.5,3.6-4.5v-5.5c0-0.6-0.1-0.9-0.4-1.1
	c-0.3-0.2-0.8-0.3-1.5-0.4c-0.1,0-0.1-0.1-0.1-0.2s0-0.2,0.1-0.2c0.3,0,0.6,0,1.1,0.1c0.5,0,0.8,0.1,1.1,0.1s0.6,0,1.1-0.1
	c0.4,0,0.8-0.1,1.1-0.1C322.7,69.6,322.7,69.7,322.7,69.8z M338.6,78.5c0,1.2-0.4,2.1-1.1,2.8c-0.7,0.7-1.7,1.1-2.9,1.1
	c-0.5,0-1.2-0.1-1.9-0.3c-0.7-0.2-1.2-0.3-1.7-0.3c0-1-0.1-2-0.2-3.1c0-0.1,0.1-0.1,0.3-0.1c0.1,0,0.2,0,0.2,0.1
	c0.3,1.1,0.7,1.9,1.2,2.4s1.2,0.7,2.1,0.7c0.7,0,1.3-0.2,1.7-0.6c0.4-0.4,0.6-1,0.6-1.8c0-0.5-0.2-0.9-0.5-1.4s-1.1-1-2.2-1.6
	c-1.3-0.8-2.2-1.4-2.6-1.9c-0.4-0.5-0.6-1.1-0.6-1.7c0-1,0.4-1.8,1.1-2.5s1.6-1,2.8-1c0.4,0,0.9,0.1,1.5,0.2c0.5,0.1,1,0.2,1.3,0.2
	c0.1,1.1,0.2,2,0.3,2.8c0,0.1-0.1,0.1-0.2,0.1c-0.2,0-0.3,0-0.3-0.1c-0.2-0.9-0.5-1.5-0.9-1.9c-0.4-0.4-1-0.6-1.7-0.6
	c-0.7,0-1.2,0.2-1.6,0.6c-0.4,0.4-0.6,0.9-0.6,1.6c0,0.4,0.2,0.8,0.5,1.2c0.3,0.4,1.1,0.9,2.2,1.6c1.3,0.8,2.2,1.4,2.6,1.9
	C338.4,77.3,338.6,77.9,338.6,78.5z M358,79.1c-0.5,1-0.9,2-1.2,3c-2.3-0.1-3.9-0.1-4.8-0.1c-0.9,0-2.6,0-4.8,0.1
	c-0.1,0-0.1-0.1-0.1-0.3c0-0.1,0-0.2,0.1-0.2c0.5-0.1,0.9-0.1,1.1-0.2c0.3-0.1,0.4-0.2,0.6-0.4c0.1-0.2,0.2-0.5,0.2-0.9v-8.5
	c0-0.4,0-0.7-0.1-0.9c-0.1-0.2-0.3-0.3-0.5-0.4c-0.3-0.1-0.7-0.2-1.2-0.2c-0.1,0-0.1-0.1-0.1-0.2s0-0.2,0.1-0.2
	c1.5,0.1,3.1,0.1,4.6,0.1c1.6,0,3.1,0,4.7-0.1c0.1,0.9,0.3,1.8,0.6,2.8c0,0.1-0.1,0.2-0.3,0.2c-0.1,0-0.2,0-0.2-0.1
	c-0.4-1.4-1.4-2.1-2.8-2.1h-1.8c-0.7,0-1,0.4-1,1.1v4h2.3c0.6,0,1-0.1,1.2-0.4c0.2-0.3,0.4-0.8,0.4-1.5c0-0.1,0.1-0.1,0.2-0.1
	s0.2,0,0.2,0.1c0,0.3,0,0.7-0.1,1.1c0,0.4-0.1,0.8-0.1,1.1c0,0.3,0,0.6,0.1,1.1c0,0.5,0.1,0.9,0.1,1.2c0,0.1-0.1,0.1-0.2,0.1
	s-0.2,0-0.2-0.1c-0.1-0.7-0.2-1.2-0.5-1.5s-0.6-0.4-1.2-0.4h-2.3v4.4c0,0.7,0.3,1.1,1,1.1h2c0.7,0,1.4-0.2,2.1-0.7s1.2-1,1.5-1.7
	c0-0.1,0.1-0.1,0.2-0.1c0.1,0,0.2,0,0.2,0.1C357.9,79,358,79.1,358,79.1z M124.2,6.2c0,0.2-0.1,0.3-0.2,0.5
	c-0.1,0.1-0.2,0.2-0.4,0.2c-1.1,0.1-2,0.5-2.7,1s-1.4,1.7-2.1,3.4l-11.2,25.3c-0.1,0.2-0.3,0.4-0.6,0.4c-0.3,0-0.5-0.1-0.6-0.4
	l-6.3-13.1l-7.2,13.1c-0.1,0.2-0.4,0.4-0.6,0.4c-0.3,0-0.5-0.1-0.6-0.4l-11-25.3c-0.7-1.6-1.4-2.7-2.2-3.3c-0.8-0.6-1.8-1-3.2-1.2
	c-0.1,0-0.2-0.1-0.3-0.2c-0.1-0.1-0.2-0.3-0.2-0.4c0-0.4,0.1-0.6,0.4-0.6c1,0,2,0,3.1,0.1C79.2,5.9,80.1,6,81,6c0.9,0,2,0,3.2-0.1
	c1.3-0.1,2.4-0.1,3.4-0.1c0.2,0,0.4,0.2,0.4,0.6s-0.1,0.6-0.2,0.6c-1,0.1-1.8,0.3-2.3,0.8c-0.6,0.4-0.8,1-0.8,1.7
	c0,0.4,0.1,0.8,0.4,1.3l9,20.6l5.3-9.8l-4.8-10.1c-0.9-1.8-1.6-3-2.1-3.5c-0.6-0.5-1.4-0.8-2.5-1c-0.1,0-0.2-0.1-0.3-0.2
	c-0.1-0.1-0.1-0.3-0.1-0.4c0-0.4,0.1-0.6,0.3-0.6c1,0,1.9,0,2.7,0.1C93,5.9,93.9,6,94.8,6c0.9,0,1.8,0,2.8-0.1c1-0.1,2-0.1,3-0.1
	c0.2,0,0.4,0.2,0.4,0.6s-0.1,0.6-0.2,0.6c-2,0.1-2.9,0.7-2.9,1.7c0,0.4,0.2,1.1,0.7,2.1l3.2,6.5l3.2-5.9c0.4-0.8,0.7-1.5,0.7-2.1
	c0-1.4-1-2.1-2.9-2.2c-0.2,0-0.3-0.2-0.3-0.6c0-0.1,0-0.3,0.1-0.4s0.2-0.2,0.3-0.2c0.7,0,1.6,0,2.6,0.1c1,0.1,1.8,0.1,2.4,0.1
	c0.5,0,1.1,0,2-0.1c1.1-0.1,2-0.2,2.8-0.2c0.2,0,0.3,0.2,0.3,0.5c0,0.5-0.2,0.7-0.5,0.7c-1.1,0.1-2.1,0.4-2.8,1
	c-0.7,0.5-1.6,1.7-2.6,3.5l-4.2,7.8l5.7,11.7l8.5-19.6c0.3-0.7,0.4-1.4,0.4-2c0-1.4-1-2.2-2.9-2.3c-0.2,0-0.3-0.2-0.3-0.6
	s0.1-0.6,0.4-0.6c0.7,0,1.6,0,2.6,0.1c0.9,0.1,1.7,0.1,2.3,0.1c0.6,0,1.4,0,2.2-0.1c0.9-0.1,1.7-0.1,2.4-0.1
	C124.1,5.7,124.2,5.9,124.2,6.2z M144.1,25.6c0,3.3-1,5.9-3.1,8c-2.1,2.1-4.8,3.1-8.2,3.1c-3.4,0-6.1-1-8.2-3.1
	c-2.1-2.1-3.1-4.7-3.1-8c0-3.3,1.1-6,3.2-8.1c2.1-2.1,4.8-3.2,8.2-3.2c3.4,0,6.1,1.1,8.2,3.2C143,19.7,144.1,22.4,144.1,25.6z
	 M140.7,25.6c0-3-0.7-5.5-2.2-7.4c-1.5-1.9-3.4-2.9-5.8-2.9c-2.4,0-4.3,1-5.8,2.9c-1.5,1.9-2.2,4.4-2.2,7.4c0,3,0.7,5.4,2.2,7.3
	s3.4,2.8,5.8,2.8c2.4,0,4.3-0.9,5.8-2.8S140.7,28.7,140.7,25.6z M175.6,35.8c0,0.3-0.1,0.4-0.2,0.4c-0.7,0-1.5,0-2.5-0.1
	c-0.9-0.1-1.7-0.1-2.3-0.1s-1.4,0-2.3,0.1c-0.9,0.1-1.8,0.1-2.4,0.1c-0.2,0-0.3-0.1-0.3-0.4c0-0.3,0.1-0.4,0.2-0.4
	c1.2-0.1,2-0.4,2.5-0.7c0.4-0.3,0.7-0.9,0.7-1.7v-0.2l-0.6-14.9l-7.4,18.6c-0.1,0.2-0.2,0.2-0.4,0.2c-0.2,0-0.4-0.1-0.4-0.2l-7-17.9
	l-1.1,14.2c0,0.2,0,0.3,0,0.5c0,0.7,0.2,1.2,0.7,1.5c0.5,0.3,1.3,0.5,2.5,0.6c0.1,0,0.2,0.2,0.2,0.4c0,0.3-0.1,0.4-0.3,0.4
	c-0.5,0-1.3,0-2.2-0.1c-0.9-0.1-1.5-0.1-2-0.1c-0.5,0-1.2,0-2.1,0.1c-0.9,0.1-1.5,0.1-2,0.1c-0.1,0-0.2-0.1-0.2-0.4
	c0-0.3,0.1-0.4,0.3-0.4c1.3-0.2,2.2-0.4,2.7-0.7c0.5-0.3,0.8-1,0.9-1.9l1.6-14.5c0-0.2,0-0.3,0-0.5c0-0.7-0.2-1.2-0.7-1.4
	c-0.5-0.3-1.3-0.5-2.6-0.7c-0.1,0-0.2-0.1-0.2-0.4c0-0.1,0-0.2,0.1-0.3s0.1-0.1,0.2-0.1c0.4,0,0.9,0,1.6,0.1c0.6,0.1,1,0.1,1.3,0.1
	c0.4,0,0.9,0,1.5-0.1c0.7-0.1,1.2-0.1,1.6-0.1l6.6,17.1l6.8-17.1c0.4,0,0.9,0,1.6,0.1c0.6,0.1,1.1,0.1,1.4,0.1c0.4,0,0.9,0,1.6-0.1
	c0.6-0.1,1.2-0.1,1.6-0.1c0.2,0,0.3,0.1,0.3,0.4s-0.1,0.4-0.2,0.4c-1.2,0.1-2,0.4-2.5,0.7c-0.4,0.3-0.7,0.9-0.7,1.7v0.3l0.7,14.5
	c0,0.7,0.1,1.2,0.3,1.5c0.2,0.3,0.5,0.5,1,0.7c0.5,0.2,1.1,0.3,2,0.4C175.5,35.4,175.6,35.6,175.6,35.8z M196.7,31.2
	c-0.8,1.8-1.5,3.5-2,5.1c-3.9-0.1-6.6-0.2-8.3-0.2c-1.6,0-4.4,0.1-8.3,0.2c-0.2,0-0.2-0.1-0.2-0.4c0-0.3,0.1-0.4,0.2-0.4
	c0.9-0.1,1.5-0.2,2-0.4c0.5-0.2,0.8-0.4,0.9-0.7c0.2-0.3,0.3-0.8,0.3-1.5V18.3c0-0.7-0.1-1.2-0.3-1.5c-0.2-0.3-0.5-0.5-0.9-0.7
	c-0.5-0.2-1.1-0.3-2-0.4c-0.2,0-0.2-0.1-0.2-0.4s0.1-0.4,0.2-0.4c2.6,0.1,5.2,0.2,7.9,0.2c2.7,0,5.4-0.1,8-0.2
	c0.2,1.6,0.6,3.2,1,4.7c0,0.2-0.2,0.3-0.5,0.3c-0.2,0-0.3-0.1-0.3-0.2c-0.8-2.4-2.4-3.6-4.9-3.6h-3.1c-1.2,0-1.8,0.6-1.8,1.8v6.9
	h3.9c1,0,1.7-0.2,2.1-0.7c0.4-0.5,0.6-1.3,0.8-2.5c0-0.2,0.1-0.2,0.4-0.2s0.4,0.1,0.4,0.2c0,0.5,0,1.2-0.1,1.9
	c-0.1,0.7-0.1,1.4-0.1,1.8c0,0.5,0,1.1,0.1,1.8c0.1,0.8,0.1,1.5,0.1,2c0,0.2-0.1,0.2-0.4,0.2s-0.4-0.1-0.4-0.2
	c-0.2-1.3-0.4-2.1-0.8-2.6s-1.1-0.8-2.1-0.8h-3.9v7.6c0,1.2,0.6,1.8,1.8,1.8h3.4c1.2,0,2.4-0.4,3.6-1.2c1.2-0.8,2.1-1.8,2.6-3
	c0-0.1,0.1-0.1,0.3-0.1c0.1,0,0.3,0,0.4,0.1C196.6,31,196.7,31,196.7,31.2z M224.2,15.3c0,0.3-0.1,0.4-0.2,0.4
	c-1.3,0.1-2.2,0.4-2.6,0.7s-0.7,1-0.7,1.9l-0.3,18.2c0,0.2-0.1,0.3-0.4,0.3c-0.1,0-0.3-0.1-0.5-0.2l-15.9-17.9l-0.2,14.2
	c0,0.1,0,0.2,0,0.2c0,0.8,0.2,1.3,0.7,1.7c0.5,0.3,1.4,0.6,2.7,0.7c0.2,0,0.2,0.2,0.2,0.4c0,0.3-0.1,0.4-0.2,0.4
	c-0.5,0-1.3,0-2.2-0.1c-0.9-0.1-1.5-0.1-2-0.1c-0.5,0-1.2,0-2.1,0.1c-0.8,0.1-1.5,0.1-2,0.1c-0.2,0-0.2-0.1-0.2-0.4
	c0-0.3,0.1-0.4,0.3-0.4c1.3-0.2,2.1-0.4,2.6-0.7c0.5-0.3,0.7-1,0.8-1.9l0.5-14.5v-0.1c0-0.8-0.2-1.4-0.7-1.7
	c-0.5-0.3-1.4-0.6-2.7-0.7c-0.1,0-0.2-0.1-0.2-0.4s0.1-0.4,0.2-0.4c0.4,0,0.9,0,1.5,0.1c0.6,0.1,1,0.1,1.3,0.1c0.4,0,0.8,0,1.3-0.1
	c0.5-0.1,1-0.1,1.3-0.1l14.8,16.6V18.3c0-0.9-0.2-1.5-0.7-1.8c-0.5-0.4-1.4-0.6-2.8-0.8c-0.2,0-0.2-0.2-0.2-0.4
	c0-0.3,0.1-0.4,0.2-0.4c0.6,0,1.3,0,2.2,0.1c0.9,0.1,1.5,0.1,2,0.1c0.5,0,1.2,0,2.1-0.1c0.8-0.1,1.5-0.1,2-0.1
	C224.1,14.8,224.2,15,224.2,15.3z M284.4,6.2c0,0.2-0.1,0.3-0.2,0.5c-0.1,0.1-0.2,0.2-0.4,0.2c-1.1,0.1-2,0.5-2.7,1
	s-1.4,1.7-2.1,3.4l-11.2,25.3c-0.1,0.2-0.3,0.4-0.6,0.4c-0.3,0-0.5-0.1-0.6-0.4l-6.3-13.1l-7.2,13.1c-0.1,0.2-0.4,0.4-0.6,0.4
	c-0.3,0-0.5-0.1-0.6-0.4l-11-25.3c-0.7-1.6-1.4-2.7-2.2-3.3c-0.8-0.6-1.8-1-3.2-1.2c-0.1,0-0.2-0.1-0.3-0.2
	c-0.1-0.1-0.2-0.3-0.2-0.4c0-0.4,0.1-0.6,0.4-0.6c1,0,2,0,3.1,0.1c1,0.1,1.9,0.1,2.8,0.1c0.9,0,2,0,3.2-0.1c1.3-0.1,2.4-0.1,3.4-0.1
	c0.2,0,0.4,0.2,0.4,0.6s-0.1,0.6-0.2,0.6c-1,0.1-1.8,0.3-2.3,0.8c-0.6,0.4-0.8,1-0.8,1.7c0,0.4,0.1,0.8,0.4,1.3l9,20.6l5.3-9.8
	l-4.8-10.1c-0.9-1.8-1.6-3-2.1-3.5c-0.6-0.5-1.4-0.8-2.5-1c-0.1,0-0.2-0.1-0.3-0.2c-0.1-0.1-0.1-0.3-0.1-0.4c0-0.4,0.1-0.6,0.3-0.6
	c1,0,1.9,0,2.7,0.1c0.8,0.1,1.6,0.1,2.5,0.1c0.9,0,1.8,0,2.8-0.1c1-0.1,2-0.1,3-0.1c0.2,0,0.4,0.2,0.4,0.6s-0.1,0.6-0.2,0.6
	c-2,0.1-2.9,0.7-2.9,1.7c0,0.4,0.2,1.1,0.7,2.1l3.2,6.5l3.2-5.9c0.4-0.8,0.7-1.5,0.7-2.1c0-1.4-1-2.1-2.9-2.2
	c-0.2,0-0.3-0.2-0.3-0.6c0-0.1,0-0.3,0.1-0.4s0.2-0.2,0.3-0.2c0.7,0,1.6,0,2.6,0.1c1,0.1,1.8,0.1,2.4,0.1c0.5,0,1.1,0,2-0.1
	c1.1-0.1,2-0.2,2.8-0.2c0.2,0,0.3,0.2,0.3,0.5c0,0.5-0.2,0.7-0.5,0.7c-1.1,0.1-2.1,0.4-2.8,1c-0.7,0.5-1.6,1.7-2.6,3.5l-4.2,7.8
	l5.7,11.7l8.5-19.6c0.3-0.7,0.4-1.4,0.4-2c0-1.4-1-2.2-2.9-2.3c-0.2,0-0.3-0.2-0.3-0.6s0.1-0.6,0.4-0.6c0.7,0,1.6,0,2.6,0.1
	c0.9,0.1,1.7,0.1,2.3,0.1c0.6,0,1.4,0,2.2-0.1c0.9-0.1,1.7-0.1,2.4-0.1C284.3,5.7,284.4,5.9,284.4,6.2z M306,35.8
	c0,0.3-0.1,0.4-0.2,0.4c-0.7,0-1.5,0-2.5-0.1c-0.9-0.1-1.7-0.1-2.3-0.1s-1.3,0-2.2,0.1c-0.9,0.1-1.6,0.1-2.3,0.1
	c-0.2,0-0.2-0.1-0.2-0.4c0-0.3,0.1-0.4,0.3-0.4c0.9-0.1,1.5-0.2,1.9-0.4s0.7-0.4,0.8-0.7s0.2-0.8,0.2-1.5v-6.9h-11.8v6.9
	c0,0.7,0.1,1.2,0.2,1.5s0.4,0.5,0.8,0.7s1.1,0.3,1.9,0.4c0.2,0,0.2,0.2,0.2,0.4c0,0.3-0.1,0.4-0.2,0.4c-0.7,0-1.5,0-2.3-0.1
	c-0.8-0.1-1.5-0.1-2.2-0.1s-1.4,0-2.3,0.1c-1,0.1-1.8,0.1-2.5,0.1c-0.2,0-0.2-0.1-0.2-0.4c0-0.3,0.1-0.4,0.2-0.4
	c1.2-0.1,2.1-0.4,2.5-0.7c0.4-0.3,0.7-1,0.7-1.9V18.3c0-0.7-0.1-1.2-0.3-1.5c-0.2-0.3-0.5-0.5-0.9-0.7c-0.5-0.2-1.1-0.3-2-0.4
	c-0.2,0-0.2-0.1-0.2-0.4s0.1-0.4,0.2-0.4c0.7,0,1.5,0,2.5,0.1c0.9,0.1,1.7,0.1,2.3,0.1s1.3,0,2.2-0.1c0.9-0.1,1.6-0.1,2.3-0.1
	c0.2,0,0.2,0.1,0.2,0.4s-0.1,0.4-0.2,0.4c-0.8,0.1-1.4,0.2-1.8,0.4c-0.4,0.2-0.7,0.4-0.9,0.6s-0.2,0.8-0.2,1.6v6.7h11.8v-6.7
	c0-0.7-0.1-1.2-0.2-1.5s-0.4-0.5-0.8-0.7c-0.4-0.2-1.1-0.3-1.9-0.4c-0.2,0-0.2-0.1-0.2-0.4s0.1-0.4,0.2-0.4c0.7,0,1.5,0,2.3,0.1
	c0.8,0.1,1.5,0.1,2.2,0.1s1.4,0,2.3-0.1c1-0.1,1.8-0.1,2.5-0.1c0.2,0,0.2,0.1,0.2,0.4s-0.1,0.4-0.2,0.4c-0.9,0.1-1.5,0.2-2,0.4
	c-0.5,0.2-0.8,0.4-0.9,0.7c-0.2,0.3-0.3,0.8-0.3,1.5v14.5c0,1,0.2,1.6,0.7,1.9c0.4,0.3,1.3,0.5,2.5,0.7
	C305.9,35.4,306,35.6,306,35.8z M331.7,25.6c0,3.3-1,5.9-3.1,8c-2.1,2.1-4.8,3.1-8.2,3.1c-3.4,0-6.1-1-8.2-3.1
	c-2.1-2.1-3.1-4.7-3.1-8c0-3.3,1.1-6,3.2-8.1c2.1-2.1,4.8-3.2,8.2-3.2c3.4,0,6.1,1.1,8.2,3.2C330.7,19.7,331.7,22.4,331.7,25.6z
	 M328.4,25.6c0-3-0.7-5.5-2.2-7.4c-1.5-1.9-3.4-2.9-5.8-2.9c-2.4,0-4.3,1-5.8,2.9c-1.5,1.9-2.2,4.4-2.2,7.4c0,3,0.7,5.4,2.2,7.3
	s3.4,2.8,5.8,2.8c2.4,0,4.3-0.9,5.8-2.8S328.4,28.7,328.4,25.6z M393.2,6.2c0,0.2-0.1,0.3-0.2,0.5c-0.1,0.1-0.2,0.2-0.4,0.2
	c-1.1,0.1-2,0.5-2.7,1s-1.4,1.7-2.1,3.4l-11.2,25.3c-0.1,0.2-0.3,0.4-0.6,0.4c-0.3,0-0.5-0.1-0.6-0.4l-6.3-13.1l-7.2,13.1
	c-0.1,0.2-0.4,0.4-0.6,0.4c-0.3,0-0.5-0.1-0.6-0.4l-11-25.3c-0.7-1.6-1.4-2.7-2.2-3.3c-0.8-0.6-1.8-1-3.2-1.2
	c-0.1,0-0.2-0.1-0.3-0.2c-0.1-0.1-0.2-0.3-0.2-0.4c0-0.4,0.1-0.6,0.4-0.6c1,0,2,0,3.1,0.1c1,0.1,1.9,0.1,2.8,0.1c0.9,0,2,0,3.2-0.1
	c1.3-0.1,2.4-0.1,3.4-0.1c0.2,0,0.4,0.2,0.4,0.6s-0.1,0.6-0.2,0.6c-1,0.1-1.8,0.3-2.3,0.8c-0.6,0.4-0.8,1-0.8,1.7
	c0,0.4,0.1,0.8,0.4,1.3l9,20.6l5.3-9.8l-4.8-10.1c-0.9-1.8-1.6-3-2.1-3.5c-0.6-0.5-1.4-0.8-2.5-1c-0.1,0-0.2-0.1-0.3-0.2
	c-0.1-0.1-0.1-0.3-0.1-0.4c0-0.4,0.1-0.6,0.3-0.6c1,0,1.9,0,2.7,0.1c0.8,0.1,1.6,0.1,2.5,0.1c0.9,0,1.8,0,2.8-0.1c1-0.1,2-0.1,3-0.1
	c0.2,0,0.4,0.2,0.4,0.6s-0.1,0.6-0.2,0.6c-2,0.1-2.9,0.7-2.9,1.7c0,0.4,0.2,1.1,0.7,2.1l3.2,6.5l3.2-5.9c0.4-0.8,0.7-1.5,0.7-2.1
	c0-1.4-1-2.1-2.9-2.2c-0.2,0-0.3-0.2-0.3-0.6c0-0.1,0-0.3,0.1-0.4s0.2-0.2,0.3-0.2c0.7,0,1.6,0,2.6,0.1c1,0.1,1.8,0.1,2.4,0.1
	c0.5,0,1.1,0,2-0.1c1.1-0.1,2-0.2,2.8-0.2c0.2,0,0.3,0.2,0.3,0.5c0,0.5-0.2,0.7-0.5,0.7c-1.1,0.1-2.1,0.4-2.8,1
	c-0.7,0.5-1.6,1.7-2.6,3.5l-4.2,7.8l5.7,11.7l8.5-19.6c0.3-0.7,0.4-1.4,0.4-2c0-1.4-1-2.2-2.9-2.3c-0.2,0-0.3-0.2-0.3-0.6
	s0.1-0.6,0.4-0.6c0.7,0,1.6,0,2.6,0.1c0.9,0.1,1.7,0.1,2.3,0.1c0.6,0,1.4,0,2.2-0.1c0.9-0.1,1.7-0.1,2.4-0.1
	C393.1,5.7,393.2,5.9,393.2,6.2z M400.9,35.8c0,0.3-0.1,0.4-0.2,0.4c-0.7,0-1.5,0-2.4-0.1c-0.9-0.1-1.7-0.1-2.3-0.1s-1.4,0-2.3,0.1
	c-1,0.1-1.8,0.1-2.5,0.1c-0.2,0-0.2-0.1-0.2-0.4c0-0.3,0.1-0.4,0.2-0.4c1.2-0.1,2.1-0.4,2.5-0.7c0.4-0.3,0.7-1,0.7-1.9V18.3
	c0-0.7-0.1-1.2-0.3-1.5s-0.5-0.5-0.9-0.7c-0.5-0.2-1.1-0.3-2-0.4c-0.2,0-0.2-0.1-0.2-0.4s0.1-0.4,0.2-0.4c0.7,0,1.5,0,2.5,0.1
	c0.9,0.1,1.7,0.1,2.3,0.1s1.4,0,2.3-0.1c0.9-0.1,1.8-0.1,2.4-0.1c0.2,0,0.2,0.1,0.2,0.4s-0.1,0.4-0.2,0.4c-0.9,0.1-1.5,0.2-2,0.4
	c-0.5,0.2-0.8,0.4-0.9,0.7c-0.2,0.3-0.3,0.8-0.3,1.5v14.5c0,0.7,0.1,1.2,0.3,1.5c0.2,0.3,0.5,0.5,0.9,0.7c0.4,0.2,1.1,0.3,2,0.4
	C400.8,35.4,400.9,35.6,400.9,35.8z M429.9,15.3c0,0.3-0.1,0.4-0.2,0.4c-1.3,0.1-2.2,0.4-2.6,0.7s-0.7,1-0.7,1.9l-0.3,18.2
	c0,0.2-0.1,0.3-0.4,0.3c-0.1,0-0.3-0.1-0.5-0.2l-15.9-17.9L409,32.8c0,0.1,0,0.2,0,0.2c0,0.8,0.2,1.3,0.7,1.7
	c0.5,0.3,1.4,0.6,2.7,0.7c0.2,0,0.2,0.2,0.2,0.4c0,0.3-0.1,0.4-0.2,0.4c-0.5,0-1.3,0-2.2-0.1c-0.9-0.1-1.5-0.1-2-0.1
	c-0.5,0-1.2,0-2.1,0.1c-0.8,0.1-1.5,0.1-2,0.1c-0.2,0-0.2-0.1-0.2-0.4c0-0.3,0.1-0.4,0.3-0.4c1.3-0.2,2.1-0.4,2.6-0.7
	c0.5-0.3,0.7-1,0.8-1.9l0.5-14.5v-0.1c0-0.8-0.2-1.4-0.7-1.7c-0.5-0.3-1.4-0.6-2.7-0.7c-0.1,0-0.2-0.1-0.2-0.4s0.1-0.4,0.2-0.4
	c0.4,0,0.9,0,1.5,0.1c0.6,0.1,1,0.1,1.3,0.1c0.4,0,0.8,0,1.3-0.1c0.5-0.1,1-0.1,1.3-0.1l14.8,16.6V18.3c0-0.9-0.2-1.5-0.7-1.8
	c-0.5-0.4-1.4-0.6-2.8-0.8c-0.2,0-0.2-0.2-0.2-0.4c0-0.3,0.1-0.4,0.2-0.4c0.6,0,1.3,0,2.2,0.1c0.9,0.1,1.5,0.1,2,0.1
	c0.5,0,1.2,0,2.1-0.1c0.8-0.1,1.5-0.1,2-0.1C429.8,14.8,429.9,15,429.9,15.3z M450.4,31.2c-0.8,1.8-1.5,3.5-2,5.1
	c-3.9-0.1-6.6-0.2-8.3-0.2c-1.6,0-4.4,0.1-8.3,0.2c-0.2,0-0.2-0.1-0.2-0.4c0-0.3,0.1-0.4,0.2-0.4c0.9-0.1,1.5-0.2,2-0.4
	c0.5-0.2,0.8-0.4,0.9-0.7c0.2-0.3,0.3-0.8,0.3-1.5V18.3c0-0.7-0.1-1.2-0.3-1.5c-0.2-0.3-0.5-0.5-0.9-0.7c-0.5-0.2-1.1-0.3-2-0.4
	c-0.2,0-0.2-0.1-0.2-0.4s0.1-0.4,0.2-0.4c2.6,0.1,5.2,0.2,7.9,0.2c2.7,0,5.4-0.1,8-0.2c0.2,1.6,0.6,3.2,1,4.7c0,0.2-0.2,0.3-0.5,0.3
	c-0.2,0-0.3-0.1-0.3-0.2c-0.8-2.4-2.4-3.6-4.9-3.6H440c-1.2,0-1.8,0.6-1.8,1.8v6.9h3.9c1,0,1.7-0.2,2.1-0.7c0.4-0.5,0.6-1.3,0.8-2.5
	c0-0.2,0.1-0.2,0.4-0.2s0.4,0.1,0.4,0.2c0,0.5,0,1.2-0.1,1.9c-0.1,0.7-0.1,1.4-0.1,1.8c0,0.5,0,1.1,0.1,1.8c0.1,0.8,0.1,1.5,0.1,2
	c0,0.2-0.1,0.2-0.4,0.2s-0.4-0.1-0.4-0.2c-0.2-1.3-0.4-2.1-0.8-2.6s-1.1-0.8-2.1-0.8h-3.9v7.6c0,1.2,0.6,1.8,1.8,1.8h3.4
	c1.2,0,2.4-0.4,3.6-1.2c1.2-0.8,2.1-1.8,2.6-3c0-0.1,0.1-0.1,0.3-0.1c0.1,0,0.3,0,0.4,0.1C450.4,31,450.4,31,450.4,31.2z
	 M298.8,104.9c3.9,0.2,7.7,0.4,11.5,0.5c3.8,0.1,7.7,0.4,11.5,0.8c-3.9,0.2-7.7,0.4-11.5,0.6c-3.8,0.2-7.7,0.3-11.5,0.3
	c-1.9,0.2-3.8,0.4-5.8,0.4c-1.9,0-3.8,0.1-5.8,0.1h-9.4c-0.2,0-0.4,0.1-0.6,0.2c-0.1,0.1-0.2,0.1-0.3,0.2c-0.9,0.6-1.7,1.2-2.6,1.5
	c-0.9,0.4-1.7,0.6-2.6,0.6c-0.8,0-1.7-0.3-2.5-0.8c-0.8-0.5-1.5-1.5-2.2-3c-0.6,0.2-1.2,0.5-1.6,0.9s-0.9,0.7-1.3,0.9
	c-0.9,0.6-1.7,1.2-2.6,1.5c-0.9,0.4-1.7,0.6-2.6,0.6c-0.9,0-1.7-0.3-2.5-0.8c-0.8-0.5-1.5-1.5-2.2-3c-0.6,0.2-1.2,0.5-1.7,0.9
	s-0.9,0.7-1.3,0.9c-0.9,0.6-1.7,1.2-2.6,1.5c-0.9,0.4-1.7,0.6-2.6,0.6c-1.2,0-2.5-0.8-3.8-2.5h-4.3c-1.9,0-3.8,0-5.8-0.1
	c-1.9,0-3.8-0.2-5.8-0.4c-3.9,0-7.7-0.1-11.5-0.3c-3.8-0.2-7.7-0.4-11.5-0.6c3.9-0.4,7.7-0.7,11.5-0.8s7.7-0.3,11.5-0.5h11.5
	l11.5-0.4c0.2,0,0.5-0.1,0.7-0.3c0.2-0.2,0.6-0.4,1-0.6c0.9-0.4,1.6-0.8,2.4-1.1c0.7-0.3,1.5-0.5,2.3-0.5c0.9,0,1.7,0.3,2.6,0.8
	c0.9,0.5,1.7,1.5,2.5,3c0.4-0.4,0.9-0.8,1.4-1.1c0.5-0.3,1-0.7,1.7-1.1c0.8-0.4,1.6-0.8,2.3-1.1s1.5-0.5,2.4-0.5
	c0.9,0,1.7,0.3,2.6,0.8c0.8,0.5,1.7,1.5,2.6,3c0.4-0.4,0.9-0.8,1.4-1.1c0.5-0.3,1-0.7,1.6-1.1c0.9-0.4,1.6-0.8,2.4-1.1
	c0.7-0.3,1.5-0.5,2.3-0.5c0.9,0,1.6,0.2,2.3,0.7c0.7,0.5,1.3,1.2,2,2.3h1.3H298.8z M254.5,106.2c0.9,0.5,1.8,0.7,2.7,0.7
	c0.6,0,1.3-0.1,2-0.3c0.2,0,0.5-0.1,0.9-0.3c0.3-0.2,0.6-0.4,0.9-0.6c-0.7-0.7-1.5-1-2.4-1c-0.7,0-1.5,0.2-2.3,0.6
	c-0.2,0-0.5,0.1-0.8,0.3C254.9,105.8,254.7,106,254.5,106.2z M267.2,106.2c1,0.5,1.9,0.7,2.7,0.7c0.6,0,1.2-0.1,2-0.3
	c0.2,0,0.5-0.1,0.9-0.3c0.4-0.2,0.6-0.4,0.9-0.6c-0.7-0.7-1.5-1-2.4-1c-0.7,0-1.5,0.2-2.3,0.6c-0.2,0-0.5,0.1-0.9,0.3
	C267.7,105.8,267.4,106,267.2,106.2z M430,53.3c-20.5,0.2-40.9,0.3-61.1,0.5c-20.2,0.2-41.9,0.6-62.5,0.6c-9,0.2-16.9,0-25.6,0
	c-2.1,0-4.3,0-6.5,0c-10.1,0-20.3-0.1-30.5-0.3c-20.5,0-40.9-0.1-61.1-0.2c-20.2-0.2-40.5-0.3-61.1-0.5c20.5-0.4,40.9-0.6,61.1-0.7
	c20.2-0.1,40.5-0.2,61.1-0.4h61v0c20.4,0.2,44.1,0.3,64.1,0.4C389.1,52.6,409.5,52.9,430,53.3z"/>
</svg>
